<svg xmlns="http://www.w3.org/2000/svg" xmlns:xlink="http://www.w3.org/1999/xlink" width="40" zoomAndPan="magnify" viewBox="0 0 30 30.000001" height="40" preserveAspectRatio="xMidYMid meet" version="1.0"><defs><clipPath id="ef857edb50"><path d="M 1.933594 1.453125 L 28.066406 1.453125 L 28.066406 27.582031 L 1.933594 27.582031 Z M 1.933594 1.453125 " clip-rule="nonzero"/></clipPath></defs><g clip-path="url(#ef857edb50)"><path fill="#000000" d="M 15.015625 1.460938 C 14.15625 1.460938 13.308594 1.542969 12.464844 1.710938 C 11.625 1.878906 10.808594 2.128906 10.015625 2.457031 C 9.222656 2.785156 8.46875 3.1875 7.753906 3.664062 C 7.039062 4.140625 6.378906 4.683594 5.773438 5.289062 C 5.167969 5.894531 4.625 6.558594 4.148438 7.269531 C 3.671875 7.984375 3.269531 8.738281 2.941406 9.53125 C 2.613281 10.324219 2.363281 11.140625 2.195312 11.980469 C 2.027344 12.824219 1.945312 13.671875 1.945312 14.53125 C 1.945312 15.390625 2.027344 16.242188 2.195312 17.082031 C 2.363281 17.921875 2.613281 18.742188 2.941406 19.535156 C 3.269531 20.328125 3.671875 21.082031 4.148438 21.792969 C 4.625 22.507812 5.167969 23.167969 5.773438 23.773438 C 6.378906 24.382812 7.039062 24.921875 7.753906 25.398438 C 8.46875 25.875 9.222656 26.28125 10.015625 26.609375 C 10.808594 26.9375 11.625 27.183594 12.464844 27.351562 C 13.308594 27.519531 14.15625 27.601562 15.015625 27.601562 C 15.875 27.601562 16.722656 27.519531 17.566406 27.351562 C 18.40625 27.183594 19.226562 26.9375 20.019531 26.609375 C 20.8125 26.28125 21.5625 25.875 22.277344 25.398438 C 22.992188 24.921875 23.652344 24.382812 24.257812 23.773438 C 24.867188 23.167969 25.40625 22.507812 25.882812 21.792969 C 26.359375 21.082031 26.761719 20.328125 27.09375 19.535156 C 27.421875 18.742188 27.667969 17.921875 27.835938 17.082031 C 28.003906 16.242188 28.085938 15.390625 28.085938 14.53125 C 28.085938 13.671875 28.003906 12.824219 27.835938 11.980469 C 27.667969 11.140625 27.421875 10.324219 27.09375 9.53125 C 26.761719 8.738281 26.359375 7.984375 25.882812 7.269531 C 25.40625 6.558594 24.867188 5.894531 24.257812 5.289062 C 23.652344 4.683594 22.992188 4.140625 22.277344 3.664062 C 21.5625 3.1875 20.8125 2.785156 20.019531 2.457031 C 19.226562 2.128906 18.40625 1.878906 17.566406 1.710938 C 16.722656 1.542969 15.875 1.460938 15.015625 1.460938 Z M 15.835938 22.695312 L 13.230469 20.089844 L 16.945312 16.375 L 6.03125 16.375 L 6.03125 12.6875 L 16.949219 12.6875 L 13.230469 8.976562 L 15.835938 6.367188 L 24 14.53125 Z M 15.835938 22.695312 " fill-opacity="1" fill-rule="nonzero"/></g></svg>