<svg xmlns="http://www.w3.org/2000/svg" xmlns:xlink="http://www.w3.org/1999/xlink" width="40" zoomAndPan="magnify" viewBox="0 0 30 30.000001" height="40" preserveAspectRatio="xMidYMid meet" version="1.0"><defs><clipPath id="876e68f478"><path d="M 3.386719 1.605469 L 25.160156 1.605469 L 25.160156 27.734375 L 3.386719 27.734375 Z M 3.386719 1.605469 " clip-rule="nonzero"/></clipPath><clipPath id="7c18ee858a"><path d="M 5 6 L 25 6 L 25 27.734375 L 5 27.734375 Z M 5 6 " clip-rule="nonzero"/></clipPath><clipPath id="e57b6831c7"><path d="M 3.386719 4 L 16 4 L 16 27.734375 L 3.386719 27.734375 Z M 3.386719 4 " clip-rule="nonzero"/></clipPath><clipPath id="b86867f73b"><path d="M 3.386719 1.605469 L 25.160156 1.605469 L 25.160156 27.734375 L 3.386719 27.734375 Z M 3.386719 1.605469 " clip-rule="nonzero"/></clipPath></defs><g clip-path="url(#876e68f478)"><path fill="#000000" d="M 3.945312 3.871094 L 3.945312 3.90625 C 3.945312 7.449219 3.945312 10.988281 3.945312 14.53125 L 3.945312 14.566406 L 4.5 14.566406 L 4.5 15.253906 L 5.078125 15.253906 L 5.078125 15.824219 L 5.632812 15.824219 L 5.632812 16.34375 L 5.074219 16.34375 L 5.074219 16.898438 L 4.5 16.890625 L 3.386719 16.890625 L 3.386719 21.507812 L 4.507812 21.507812 L 4.507812 22.070312 L 4.542969 22.070312 C 4.609375 22.070312 4.675781 22.070312 4.742188 22.070312 L 5.617188 22.070312 L 5.617188 22.636719 L 5.652344 22.636719 C 5.722656 22.636719 5.789062 22.636719 5.855469 22.636719 L 6.734375 22.636719 L 6.734375 23.203125 L 6.769531 23.203125 C 6.835938 23.203125 6.90625 23.203125 6.96875 23.203125 L 7.847656 23.203125 L 7.847656 23.769531 L 7.882812 23.769531 C 7.949219 23.769531 8.015625 23.769531 8.082031 23.769531 L 8.957031 23.769531 L 8.957031 24.335938 L 8.992188 24.335938 C 9.0625 24.335938 9.128906 24.335938 9.195312 24.335938 L 10.070312 24.335938 L 10.070312 24.902344 L 10.105469 24.902344 C 10.171875 24.902344 10.242188 24.902344 10.304688 24.902344 L 11.183594 24.902344 L 11.183594 25.46875 L 11.21875 25.46875 C 11.285156 25.46875 11.351562 25.46875 11.417969 25.46875 L 12.292969 25.46875 L 12.292969 26.035156 L 12.328125 26.035156 C 12.398438 26.035156 12.464844 26.035156 12.53125 26.035156 L 13.40625 26.035156 L 13.40625 26.601562 L 13.960938 26.601562 L 13.960938 27.167969 L 14 27.167969 C 14.144531 27.167969 14.292969 27.167969 14.441406 27.167969 L 15.316406 27.167969 L 15.316406 27.734375 L 15.351562 27.734375 C 15.828125 27.734375 16.304688 27.734375 16.78125 27.734375 L 16.820312 27.734375 L 16.820312 27.167969 L 17.375 27.167969 L 17.375 26.601562 L 18.25 26.601562 C 18.316406 26.601562 18.386719 26.601562 18.453125 26.601562 L 18.488281 26.601562 L 18.488281 26.035156 L 19.363281 26.035156 C 19.429688 26.035156 19.496094 26.035156 19.5625 26.035156 L 19.597656 26.035156 L 19.597656 25.464844 L 20.476562 25.464844 C 20.542969 25.464844 20.609375 25.464844 20.675781 25.464844 L 20.710938 25.464844 L 20.710938 24.898438 L 21.585938 24.898438 C 21.65625 24.898438 21.722656 24.898438 21.789062 24.898438 L 21.824219 24.898438 L 21.824219 24.332031 L 22.699219 24.332031 C 22.765625 24.332031 22.832031 24.332031 22.898438 24.332031 L 22.933594 24.332031 L 22.933594 23.765625 L 23.8125 23.765625 C 23.878906 23.765625 23.945312 23.765625 24.011719 23.765625 L 24.046875 23.765625 L 24.046875 23.199219 L 24.605469 23.199219 L 24.605469 22.632812 L 25.160156 22.632812 L 25.160156 22.597656 C 25.160156 21.277344 25.160156 19.957031 25.160156 18.636719 L 25.160156 18.601562 L 24.605469 18.601562 L 24.605469 18.035156 L 24.046875 18.035156 L 24.046875 17.46875 L 23.492188 17.46875 L 23.492188 16.914062 L 22.359375 16.914062 L 22.359375 16.34375 L 21.269531 16.34375 L 21.269531 15.832031 L 22.375 15.832031 L 22.375 15.273438 L 23.5 15.273438 L 23.5 14.710938 L 24.054688 14.710938 L 24.054688 10.722656 L 24.613281 10.722656 L 24.613281 10.6875 C 24.613281 9.179688 24.613281 7.671875 24.613281 6.160156 L 24.613281 6.125 L 24.054688 6.125 L 24.054688 5.558594 L 23.5 5.558594 L 23.5 4.992188 L 22.941406 4.992188 L 22.941406 4.425781 L 22.90625 4.425781 C 22.839844 4.425781 22.773438 4.425781 22.707031 4.425781 L 21.832031 4.425781 L 21.832031 3.867188 L 21.792969 3.867188 C 21.726562 3.867188 21.660156 3.867188 21.59375 3.867188 L 20.71875 3.867188 L 20.71875 3.304688 L 20.683594 3.304688 C 20.617188 3.304688 20.546875 3.304688 20.480469 3.304688 L 19.605469 3.304688 L 19.605469 2.738281 L 19.570312 2.738281 C 19.316406 2.738281 19.0625 2.738281 18.8125 2.738281 L 17.9375 2.738281 L 17.9375 2.171875 L 17.898438 2.171875 C 16.535156 2.171875 15.167969 2.171875 13.800781 2.171875 L 12.925781 2.171875 L 12.925781 1.605469 L 12.890625 1.605469 C 11.589844 1.605469 10.292969 1.605469 8.992188 1.605469 L 8.957031 1.605469 L 8.957031 2.171875 L 8.082031 2.171875 C 7.828125 2.171875 7.574219 2.171875 7.324219 2.171875 L 7.289062 2.171875 L 7.289062 2.738281 L 6.410156 2.738281 C 6.160156 2.738281 5.90625 2.738281 5.652344 2.738281 L 5.617188 2.738281 L 5.617188 3.304688 L 4.742188 3.304688 C 4.675781 3.304688 4.609375 3.304688 4.542969 3.304688 L 4.507812 3.304688 L 4.507812 3.871094 Z M 3.945312 3.871094 " fill-opacity="1" fill-rule="evenodd"/></g><path fill="#e6e6e6" d="M 5.09375 3.90625 C 4.910156 3.90625 4.722656 3.90625 4.535156 3.90625 C 4.535156 4.09375 4.535156 4.285156 4.535156 4.472656 C 4.722656 4.472656 4.910156 4.472656 5.09375 4.472656 C 5.277344 4.472656 5.464844 4.472656 5.652344 4.472656 C 5.652344 4.660156 5.652344 4.851562 5.652344 5.039062 C 5.835938 5.039062 6.023438 5.039062 6.207031 5.039062 C 6.390625 5.039062 6.578125 5.039062 6.765625 5.039062 C 6.765625 5.226562 6.765625 5.417969 6.765625 5.605469 C 6.949219 5.605469 7.136719 5.605469 7.320312 5.605469 C 7.507812 5.605469 7.691406 5.605469 7.878906 5.605469 C 7.878906 5.792969 7.878906 5.984375 7.878906 6.171875 C 8.0625 6.171875 8.25 6.171875 8.433594 6.171875 C 8.621094 6.171875 8.808594 6.171875 8.992188 6.171875 C 8.992188 6.359375 8.992188 6.550781 8.992188 6.738281 C 9.175781 6.738281 9.363281 6.738281 9.546875 6.738281 C 9.734375 6.738281 9.921875 6.738281 10.105469 6.738281 C 10.105469 6.925781 10.105469 7.117188 10.105469 7.304688 C 10.289062 7.304688 10.476562 7.304688 10.664062 7.304688 C 10.847656 7.304688 11.035156 7.304688 11.21875 7.304688 C 11.21875 7.492188 11.21875 7.683594 11.21875 7.871094 C 11.40625 7.871094 11.589844 7.871094 11.777344 7.871094 C 11.960938 7.871094 12.148438 7.871094 12.332031 7.871094 C 12.332031 8.058594 12.332031 8.246094 12.332031 8.4375 C 12.519531 8.4375 12.703125 8.4375 12.890625 8.4375 C 13.074219 8.4375 13.261719 8.4375 13.445312 8.4375 C 13.445312 8.625 13.445312 8.8125 13.445312 9.003906 C 13.632812 9.003906 13.820312 9.003906 14.003906 9.003906 C 14.1875 9.003906 14.375 9.003906 14.5625 9.003906 C 14.746094 9.003906 14.933594 9.003906 15.117188 9.003906 C 15.117188 8.8125 15.117188 8.625 15.117188 8.4375 C 15.300781 8.4375 15.488281 8.4375 15.675781 8.4375 C 15.859375 8.4375 16.046875 8.4375 16.230469 8.4375 C 16.230469 8.246094 16.230469 8.058594 16.230469 7.871094 C 16.417969 7.871094 16.601562 7.871094 16.789062 7.871094 C 16.972656 7.871094 17.160156 7.871094 17.34375 7.871094 C 17.53125 7.871094 17.71875 7.871094 17.902344 7.871094 C 17.902344 7.683594 17.902344 7.492188 17.902344 7.304688 C 18.085938 7.304688 18.273438 7.304688 18.457031 7.304688 C 18.644531 7.304688 18.832031 7.304688 19.015625 7.304688 C 19.199219 7.304688 19.386719 7.304688 19.574219 7.304688 C 19.574219 7.117188 19.574219 6.925781 19.574219 6.738281 C 19.757812 6.738281 19.945312 6.738281 20.128906 6.738281 C 20.316406 6.738281 20.5 6.738281 20.6875 6.738281 C 20.871094 6.738281 21.058594 6.738281 21.242188 6.738281 C 21.429688 6.738281 21.613281 6.738281 21.800781 6.738281 C 21.800781 6.550781 21.800781 6.359375 21.800781 6.171875 C 21.984375 6.171875 22.171875 6.171875 22.355469 6.171875 C 22.542969 6.171875 22.730469 6.171875 22.914062 6.171875 C 23.097656 6.171875 23.285156 6.171875 23.472656 6.171875 C 23.472656 5.984375 23.472656 5.792969 23.472656 5.605469 C 23.285156 5.605469 23.097656 5.605469 22.914062 5.605469 C 22.914062 5.417969 22.914062 5.226562 22.914062 5.039062 C 22.542969 5.039062 22.171875 5.039062 21.800781 5.039062 C 21.800781 4.851562 21.800781 4.660156 21.800781 4.472656 C 21.429688 4.472656 21.058594 4.472656 20.691406 4.472656 C 20.691406 4.285156 20.691406 4.09375 20.691406 3.90625 C 20.316406 3.90625 19.945312 3.90625 19.578125 3.90625 C 19.578125 3.71875 19.578125 3.527344 19.578125 3.339844 C 19.019531 3.339844 18.464844 3.339844 17.90625 3.339844 C 17.90625 3.152344 17.90625 2.960938 17.90625 2.773438 C 16.238281 2.773438 14.566406 2.773438 12.898438 2.773438 C 12.898438 2.585938 12.898438 2.398438 12.898438 2.207031 C 11.597656 2.207031 10.300781 2.207031 9 2.207031 C 9 2.398438 9 2.585938 9 2.773438 C 8.445312 2.773438 7.886719 2.773438 7.328125 2.773438 C 7.328125 2.960938 7.328125 3.152344 7.328125 3.339844 C 6.773438 3.339844 6.21875 3.339844 5.660156 3.339844 C 5.660156 3.527344 5.660156 3.71875 5.660156 3.90625 C 5.464844 3.90625 5.277344 3.90625 5.09375 3.90625 Z M 7.878906 18.621094 C 7.878906 18.808594 7.878906 18.996094 7.878906 19.183594 C 8.0625 19.183594 8.25 19.183594 8.433594 19.183594 C 8.621094 19.183594 8.808594 19.183594 8.992188 19.183594 C 8.992188 19.375 8.992188 19.5625 8.992188 19.75 C 9.175781 19.75 9.363281 19.75 9.546875 19.75 C 9.734375 19.75 9.921875 19.75 10.105469 19.75 C 10.105469 19.941406 10.105469 20.128906 10.105469 20.316406 C 10.289062 20.316406 10.476562 20.316406 10.664062 20.316406 C 10.847656 20.316406 11.035156 20.316406 11.21875 20.316406 C 11.40625 20.316406 11.589844 20.316406 11.777344 20.316406 C 11.777344 20.503906 11.777344 20.695312 11.777344 20.882812 C 11.960938 20.882812 12.148438 20.882812 12.332031 20.882812 C 12.332031 21.070312 12.332031 21.261719 12.332031 21.449219 C 12.519531 21.449219 12.703125 21.449219 12.890625 21.449219 C 13.074219 21.449219 13.261719 21.449219 13.445312 21.449219 C 13.632812 21.449219 13.820312 21.449219 14.003906 21.449219 C 14.003906 21.636719 14.003906 21.828125 14.003906 22.015625 C 14.1875 22.015625 14.375 22.015625 14.5625 22.015625 C 14.746094 22.015625 14.933594 22.015625 15.117188 22.015625 C 15.117188 22.203125 15.117188 22.394531 15.117188 22.582031 C 15.300781 22.582031 15.488281 22.582031 15.675781 22.582031 C 15.859375 22.582031 16.046875 22.582031 16.230469 22.582031 C 16.230469 22.394531 16.230469 22.203125 16.230469 22.015625 C 16.417969 22.015625 16.601562 22.015625 16.789062 22.015625 C 16.789062 21.828125 16.789062 21.636719 16.789062 21.449219 C 16.972656 21.449219 17.160156 21.449219 17.34375 21.449219 C 17.53125 21.449219 17.71875 21.449219 17.902344 21.449219 C 17.902344 21.261719 17.902344 21.070312 17.902344 20.882812 C 18.085938 20.882812 18.273438 20.882812 18.457031 20.882812 C 18.644531 20.882812 18.832031 20.882812 19.015625 20.882812 C 19.015625 20.695312 19.015625 20.503906 19.015625 20.316406 C 19.199219 20.316406 19.386719 20.316406 19.574219 20.316406 C 19.757812 20.316406 19.945312 20.316406 20.128906 20.316406 C 20.128906 20.128906 20.128906 19.941406 20.128906 19.75 C 20.316406 19.75 20.5 19.75 20.6875 19.75 C 20.871094 19.75 21.058594 19.75 21.242188 19.75 C 21.242188 19.5625 21.242188 19.375 21.242188 19.183594 C 21.429688 19.183594 21.613281 19.183594 21.800781 19.183594 C 21.984375 19.183594 22.171875 19.183594 22.355469 19.183594 C 22.542969 19.183594 22.730469 19.183594 22.914062 19.183594 C 22.914062 18.996094 22.914062 18.808594 22.914062 18.621094 C 23.097656 18.621094 23.285156 18.621094 23.472656 18.621094 C 23.65625 18.621094 23.84375 18.621094 24.027344 18.621094 C 24.027344 18.429688 24.027344 18.242188 24.027344 18.054688 C 23.84375 18.054688 23.65625 18.054688 23.472656 18.054688 C 23.472656 17.863281 23.472656 17.675781 23.472656 17.488281 C 23.097656 17.488281 22.726562 17.488281 22.359375 17.488281 C 22.359375 17.296875 22.359375 17.109375 22.359375 16.921875 C 21.988281 16.921875 21.613281 16.921875 21.246094 16.921875 C 20.878906 16.921875 20.503906 16.921875 20.136719 16.921875 C 20.136719 17.109375 20.136719 17.296875 20.136719 17.488281 C 19.949219 17.488281 19.761719 17.488281 19.578125 17.488281 C 19.394531 17.488281 19.207031 17.488281 19.019531 17.488281 C 19.019531 17.675781 19.019531 17.863281 19.019531 18.054688 C 19.019531 18.242188 19.019531 18.429688 19.019531 18.621094 C 19.019531 18.808594 19.019531 18.996094 19.019531 19.183594 C 18.835938 19.183594 18.648438 19.183594 18.464844 19.183594 C 18.464844 19.375 18.464844 19.5625 18.464844 19.75 C 18.277344 19.75 18.09375 19.75 17.90625 19.75 C 17.722656 19.75 17.535156 19.75 17.351562 19.75 L 17.351562 20.316406 C 17.164062 20.316406 16.980469 20.316406 16.792969 20.316406 L 16.238281 20.316406 C 16.238281 20.503906 16.238281 20.695312 16.238281 20.882812 C 16.050781 20.882812 15.863281 20.882812 15.679688 20.882812 C 15.496094 20.882812 15.308594 20.882812 15.121094 20.882812 C 14.9375 20.882812 14.75 20.882812 14.566406 20.882812 C 14.382812 20.882812 14.195312 20.882812 14.007812 20.882812 C 13.824219 20.882812 13.636719 20.882812 13.453125 20.882812 C 13.453125 20.695312 13.453125 20.503906 13.453125 20.316406 C 13.265625 20.316406 13.082031 20.316406 12.894531 20.316406 C 12.710938 20.316406 12.523438 20.316406 12.339844 20.316406 C 12.339844 20.128906 12.339844 19.941406 12.339844 19.75 C 12.152344 19.75 11.964844 19.75 11.78125 19.75 C 11.597656 19.75 11.410156 19.75 11.226562 19.75 C 11.226562 19.5625 11.226562 19.375 11.226562 19.183594 C 11.039062 19.183594 10.851562 19.183594 10.667969 19.183594 C 10.484375 19.183594 10.296875 19.183594 10.109375 19.183594 C 10.109375 18.996094 10.109375 18.808594 10.109375 18.621094 C 9.925781 18.621094 9.738281 18.621094 9.554688 18.621094 C 9.367188 18.621094 9.183594 18.621094 8.996094 18.621094 C 8.996094 18.429688 8.996094 18.242188 8.996094 18.054688 C 8.8125 18.054688 8.625 18.054688 8.441406 18.054688 C 8.253906 18.054688 8.066406 18.054688 7.882812 18.054688 C 7.882812 17.863281 7.882812 17.675781 7.882812 17.488281 C 7.699219 17.488281 7.511719 17.488281 7.328125 17.488281 C 7.328125 17.296875 7.328125 17.109375 7.328125 16.921875 C 7.140625 16.921875 6.953125 16.921875 6.769531 16.921875 C 6.585938 16.921875 6.398438 16.921875 6.210938 16.921875 C 6.027344 16.921875 5.839844 16.921875 5.65625 16.921875 C 5.472656 16.921875 5.285156 16.921875 5.097656 16.921875 C 5.097656 17.109375 5.097656 17.296875 5.097656 17.488281 C 5.285156 17.488281 5.472656 17.488281 5.65625 17.488281 C 5.65625 17.675781 5.65625 17.863281 5.65625 18.054688 C 5.839844 18.054688 6.027344 18.054688 6.210938 18.054688 C 6.398438 18.054688 6.585938 18.054688 6.769531 18.054688 C 6.769531 18.242188 6.769531 18.429688 6.769531 18.621094 C 6.953125 18.621094 7.140625 18.621094 7.328125 18.621094 C 7.507812 18.621094 7.691406 18.621094 7.878906 18.621094 Z M 17.898438 6.734375 C 17.898438 6.925781 17.898438 7.113281 17.898438 7.300781 C 17.710938 7.300781 17.523438 7.300781 17.339844 7.300781 C 17.15625 7.300781 16.96875 7.300781 16.78125 7.300781 C 16.597656 7.300781 16.410156 7.300781 16.226562 7.300781 C 16.226562 7.113281 16.226562 6.925781 16.226562 6.734375 C 16.78125 6.734375 17.339844 6.734375 17.898438 6.734375 Z M 16.226562 6.734375 C 15.855469 6.734375 15.480469 6.734375 15.113281 6.734375 C 15.113281 6.546875 15.113281 6.359375 15.113281 6.167969 C 15.484375 6.167969 15.859375 6.167969 16.226562 6.167969 C 16.226562 6.359375 16.226562 6.546875 16.226562 6.734375 Z M 15.113281 6.167969 C 14.742188 6.167969 14.371094 6.167969 14.003906 6.167969 C 14.003906 5.980469 14.003906 5.792969 14.003906 5.601562 C 14.375 5.601562 14.746094 5.601562 15.113281 5.601562 C 15.113281 5.792969 15.113281 5.980469 15.113281 6.167969 Z M 14 5.601562 C 13.816406 5.601562 13.628906 5.601562 13.441406 5.601562 C 13.441406 5.414062 13.441406 5.226562 13.441406 5.039062 C 13.628906 5.039062 13.816406 5.039062 14 5.039062 C 14 5.226562 14 5.414062 14 5.601562 Z M 13.441406 5.039062 C 13.070312 5.039062 12.699219 5.039062 12.332031 5.039062 C 12.332031 4.847656 12.332031 4.660156 12.332031 4.472656 C 12.703125 4.472656 13.074219 4.472656 13.441406 4.472656 C 13.441406 4.660156 13.441406 4.847656 13.441406 5.039062 Z M 12.328125 4.472656 C 11.957031 4.472656 11.585938 4.472656 11.21875 4.472656 C 11.21875 4.285156 11.21875 4.09375 11.21875 3.90625 C 11.589844 3.90625 11.960938 3.90625 12.328125 3.90625 C 12.328125 4.09375 12.328125 4.28125 12.328125 4.472656 Z M 11.21875 3.90625 C 10.84375 3.90625 10.472656 3.90625 10.105469 3.90625 C 10.105469 3.71875 10.105469 3.527344 10.105469 3.339844 C 10.476562 3.339844 10.847656 3.339844 11.21875 3.339844 C 11.21875 3.527344 11.21875 3.71875 11.21875 3.90625 Z M 10.105469 3.339844 C 9.730469 3.339844 9.359375 3.339844 8.992188 3.339844 C 8.992188 3.152344 8.992188 2.960938 8.992188 2.773438 C 9.363281 2.773438 9.734375 2.773438 10.105469 2.773438 C 10.105469 2.960938 10.105469 3.152344 10.105469 3.339844 Z M 10.105469 3.339844 " fill-opacity="1" fill-rule="evenodd"/><g clip-path="url(#7c18ee858a)"><path fill="#adadad" d="M 15.113281 8.433594 L 15.113281 9 L 14.558594 9 L 14.558594 19.75 L 15.683594 19.75 L 15.683594 19.183594 C 16.054688 19.183594 16.425781 19.183594 16.796875 19.183594 L 16.796875 19.75 C 16.421875 19.75 16.050781 19.75 15.683594 19.75 C 15.683594 19.9375 15.683594 20.128906 15.683594 20.316406 C 15.5 20.316406 15.3125 20.316406 15.125 20.316406 C 14.941406 20.316406 14.753906 20.316406 14.570312 20.316406 C 14.382812 20.316406 14.199219 20.316406 14.011719 20.316406 C 14.011719 20.128906 14.011719 19.9375 14.011719 19.75 C 13.828125 19.75 13.640625 19.75 13.457031 19.75 C 13.269531 19.75 13.082031 19.75 12.898438 19.75 C 12.898438 19.5625 12.898438 19.371094 12.898438 19.183594 C 12.714844 19.183594 12.527344 19.183594 12.34375 19.183594 C 12.15625 19.183594 11.96875 19.183594 11.785156 19.183594 C 11.785156 18.996094 11.785156 18.804688 11.785156 18.617188 C 11.601562 18.617188 11.414062 18.617188 11.226562 18.617188 C 11.042969 18.617188 10.855469 18.617188 10.671875 18.617188 C 10.671875 18.429688 10.671875 18.238281 10.671875 18.050781 C 10.484375 18.050781 10.300781 18.050781 10.113281 18.050781 C 9.929688 18.050781 9.742188 18.050781 9.558594 18.050781 C 9.558594 17.863281 9.558594 17.671875 9.558594 17.484375 C 9.371094 17.484375 9.1875 17.484375 9 17.484375 C 8.816406 17.484375 8.628906 17.484375 8.445312 17.484375 C 8.445312 17.296875 8.445312 17.105469 8.445312 16.917969 C 8.257812 16.917969 8.070312 16.917969 7.886719 16.917969 C 7.703125 16.917969 7.515625 16.917969 7.328125 16.917969 C 7.328125 16.730469 7.328125 16.539062 7.328125 16.351562 C 7.144531 16.351562 6.957031 16.351562 6.773438 16.351562 L 6.21875 16.351562 C 6.214844 16.351562 6.210938 16.351562 6.210938 16.351562 C 6.207031 16.351562 6.203125 16.351562 6.199219 16.351562 C 6.195312 16.351562 6.195312 16.351562 6.191406 16.351562 C 6.1875 16.351562 6.1875 16.351562 6.183594 16.351562 C 6.179688 16.351562 6.175781 16.351562 6.171875 16.351562 C 6.171875 16.351562 6.167969 16.351562 6.164062 16.351562 C 6.160156 16.351562 6.160156 16.351562 6.15625 16.351562 C 6.152344 16.351562 6.148438 16.351562 6.148438 16.351562 C 6.144531 16.351562 6.140625 16.351562 6.136719 16.351562 C 6.132812 16.351562 6.132812 16.351562 6.128906 16.351562 C 6.125 16.351562 6.125 16.351562 6.121094 16.351562 C 6.117188 16.351562 6.113281 16.351562 6.109375 16.351562 C 6.109375 16.351562 6.105469 16.351562 6.101562 16.351562 C 6.097656 16.351562 6.097656 16.351562 6.09375 16.351562 C 6.089844 16.351562 6.089844 16.351562 6.085938 16.351562 C 6.082031 16.351562 6.078125 16.351562 6.074219 16.351562 C 6.070312 16.351562 6.070312 16.351562 6.066406 16.351562 C 6.0625 16.351562 6.0625 16.351562 6.058594 16.351562 C 6.054688 16.351562 6.050781 16.351562 6.050781 16.351562 C 6.046875 16.351562 6.042969 16.351562 6.039062 16.351562 C 6.035156 16.351562 6.035156 16.351562 6.03125 16.351562 C 6.027344 16.351562 6.027344 16.351562 6.023438 16.351562 C 6.019531 16.351562 6.015625 16.351562 6.011719 16.351562 C 6.011719 16.351562 6.007812 16.351562 6.003906 16.351562 C 6 16.351562 6 16.351562 5.996094 16.351562 C 5.992188 16.351562 5.988281 16.351562 5.988281 16.351562 C 5.984375 16.351562 5.980469 16.351562 5.976562 16.351562 C 5.972656 16.351562 5.972656 16.351562 5.96875 16.351562 C 5.964844 16.351562 5.964844 16.351562 5.960938 16.351562 C 5.957031 16.351562 5.953125 16.351562 5.949219 16.351562 C 5.949219 16.351562 5.945312 16.351562 5.941406 16.351562 C 5.9375 16.351562 5.9375 16.351562 5.933594 16.351562 C 5.929688 16.351562 5.929688 16.351562 5.925781 16.351562 C 5.921875 16.351562 5.917969 16.351562 5.914062 16.351562 C 5.910156 16.351562 5.910156 16.351562 5.90625 16.351562 C 5.902344 16.351562 5.902344 16.351562 5.898438 16.351562 C 5.894531 16.351562 5.890625 16.351562 5.890625 16.351562 C 5.886719 16.351562 5.882812 16.351562 5.878906 16.351562 C 5.875 16.351562 5.875 16.351562 5.871094 16.351562 C 5.867188 16.351562 5.867188 16.351562 5.863281 16.351562 C 5.859375 16.351562 5.855469 16.351562 5.851562 16.351562 C 5.851562 16.351562 5.847656 16.351562 5.84375 16.351562 C 5.839844 16.351562 5.839844 16.351562 5.835938 16.351562 C 5.832031 16.351562 5.832031 16.351562 5.828125 16.351562 C 5.824219 16.351562 5.820312 16.351562 5.816406 16.351562 C 5.8125 16.351562 5.8125 16.351562 5.808594 16.351562 C 5.804688 16.351562 5.804688 16.351562 5.800781 16.351562 C 5.796875 16.351562 5.792969 16.351562 5.789062 16.351562 C 5.789062 16.351562 5.785156 16.351562 5.78125 16.351562 C 5.777344 16.351562 5.777344 16.351562 5.773438 16.351562 C 5.769531 16.351562 5.769531 16.351562 5.765625 16.351562 C 5.761719 16.351562 5.757812 16.351562 5.753906 16.351562 C 5.75 16.351562 5.75 16.351562 5.746094 16.351562 C 5.742188 16.351562 5.742188 16.351562 5.738281 16.351562 C 5.734375 16.351562 5.730469 16.351562 5.730469 16.351562 C 5.726562 16.351562 5.722656 16.351562 5.71875 16.351562 C 5.714844 16.351562 5.714844 16.351562 5.710938 16.351562 C 5.707031 16.351562 5.707031 16.351562 5.703125 16.351562 C 5.699219 16.351562 5.695312 16.351562 5.691406 16.351562 C 5.691406 16.351562 5.6875 16.351562 5.683594 16.351562 C 5.679688 16.351562 5.679688 16.351562 5.675781 16.351562 C 5.671875 16.351562 5.671875 16.351562 5.667969 16.351562 C 5.664062 16.351562 5.660156 16.351562 5.65625 16.351562 C 5.652344 16.351562 5.652344 16.351562 5.648438 16.351562 C 5.648438 16.539062 5.648438 16.730469 5.648438 16.917969 C 5.832031 16.917969 6.019531 16.917969 6.207031 16.917969 C 6.390625 16.917969 6.578125 16.917969 6.761719 16.917969 C 6.949219 16.917969 7.132812 16.917969 7.320312 16.917969 C 7.320312 17.105469 7.320312 17.296875 7.320312 17.484375 C 7.503906 17.484375 7.691406 17.484375 7.875 17.484375 C 7.875 17.671875 7.875 17.863281 7.875 18.050781 C 8.0625 18.050781 8.246094 18.050781 8.433594 18.050781 C 8.617188 18.050781 8.804688 18.050781 8.988281 18.050781 C 8.988281 18.238281 8.988281 18.429688 8.988281 18.617188 C 9.175781 18.617188 9.363281 18.617188 9.546875 18.617188 C 9.730469 18.617188 9.917969 18.617188 10.105469 18.617188 C 10.105469 18.804688 10.105469 18.996094 10.105469 19.183594 C 10.289062 19.183594 10.476562 19.183594 10.660156 19.183594 C 10.84375 19.183594 11.03125 19.183594 11.21875 19.183594 C 11.21875 19.371094 11.21875 19.5625 11.21875 19.75 C 11.402344 19.75 11.589844 19.75 11.773438 19.75 C 11.960938 19.75 12.144531 19.75 12.332031 19.75 C 12.332031 19.9375 12.332031 20.128906 12.332031 20.316406 C 12.515625 20.316406 12.703125 20.316406 12.886719 20.316406 C 13.074219 20.316406 13.261719 20.316406 13.445312 20.316406 C 13.445312 20.503906 13.445312 20.695312 13.445312 20.882812 C 13.628906 20.882812 13.816406 20.882812 14.003906 20.882812 C 14.1875 20.882812 14.375 20.882812 14.558594 20.882812 C 14.742188 20.882812 14.929688 20.882812 15.117188 20.882812 C 15.300781 20.882812 15.488281 20.882812 15.671875 20.882812 C 15.859375 20.882812 16.042969 20.882812 16.230469 20.882812 C 16.230469 20.695312 16.230469 20.503906 16.230469 20.316406 L 16.785156 20.316406 C 16.972656 20.316406 17.160156 20.316406 17.34375 20.316406 L 17.34375 19.75 C 17.527344 19.75 17.714844 19.75 17.898438 19.75 C 18.085938 19.75 18.273438 19.75 18.457031 19.75 C 18.457031 19.5625 18.457031 19.371094 18.457031 19.183594 C 18.640625 19.183594 18.828125 19.183594 19.015625 19.183594 C 19.015625 18.996094 19.015625 18.804688 19.015625 18.617188 C 19.015625 18.429688 19.015625 18.238281 19.015625 18.050781 C 19.015625 17.863281 19.015625 17.671875 19.015625 17.484375 C 19.199219 17.484375 19.386719 17.484375 19.570312 17.484375 C 19.757812 17.484375 19.941406 17.484375 20.128906 17.484375 C 20.128906 17.296875 20.128906 17.105469 20.128906 16.917969 C 20.5 16.917969 20.871094 16.917969 21.238281 16.917969 C 21.238281 16.730469 21.238281 16.539062 21.238281 16.351562 C 20.867188 16.351562 20.496094 16.351562 20.128906 16.351562 C 20.128906 16.164062 20.128906 15.976562 20.128906 15.785156 C 20.5 15.785156 20.871094 15.785156 21.238281 15.785156 C 21.238281 15.597656 21.238281 15.410156 21.238281 15.21875 C 21.613281 15.21875 21.984375 15.21875 22.351562 15.21875 C 22.351562 15.03125 22.351562 14.84375 22.351562 14.65625 C 22.722656 14.65625 23.09375 14.65625 23.464844 14.65625 L 23.464844 11.261719 C 23.277344 11.261719 23.09375 11.261719 22.90625 11.261719 C 22.90625 11.074219 22.90625 10.886719 22.90625 10.695312 C 23.09375 10.695312 23.277344 10.695312 23.464844 10.695312 L 23.464844 10.128906 C 23.648438 10.128906 23.835938 10.128906 24.019531 10.128906 L 24.019531 6.167969 C 23.835938 6.167969 23.648438 6.167969 23.464844 6.167969 C 23.277344 6.167969 23.09375 6.167969 22.90625 6.167969 C 22.722656 6.167969 22.535156 6.167969 22.351562 6.167969 C 22.164062 6.167969 21.976562 6.167969 21.792969 6.167969 C 21.792969 6.359375 21.792969 6.546875 21.792969 6.734375 C 21.609375 6.734375 21.421875 6.734375 21.234375 6.734375 C 21.050781 6.734375 20.863281 6.734375 20.679688 6.734375 C 20.496094 6.734375 20.308594 6.734375 20.121094 6.734375 C 19.9375 6.734375 19.75 6.734375 19.566406 6.734375 C 19.566406 6.925781 19.566406 7.113281 19.566406 7.300781 C 19.378906 7.300781 19.195312 7.300781 19.007812 7.300781 C 18.824219 7.300781 18.636719 7.300781 18.453125 7.300781 L 18.453125 15.789062 C 18.636719 15.789062 18.824219 15.789062 19.007812 15.789062 C 19.007812 15.976562 19.007812 16.167969 19.007812 16.355469 C 18.824219 16.355469 18.636719 16.355469 18.453125 16.355469 L 18.453125 16.921875 C 18.636719 16.921875 18.824219 16.921875 19.007812 16.921875 C 19.007812 17.109375 19.007812 17.296875 19.007812 17.488281 C 18.824219 17.488281 18.636719 17.488281 18.453125 17.488281 C 18.453125 17.675781 18.453125 17.863281 18.453125 18.054688 C 18.453125 18.242188 18.453125 18.429688 18.453125 18.621094 C 18.265625 18.621094 18.078125 18.621094 17.894531 18.621094 C 17.894531 15.035156 17.894531 11.449219 17.894531 7.867188 C 17.710938 7.867188 17.523438 7.867188 17.339844 7.867188 C 17.152344 7.867188 16.964844 7.867188 16.78125 7.867188 C 16.597656 7.867188 16.410156 7.867188 16.222656 7.867188 C 16.222656 8.054688 16.222656 8.246094 16.222656 8.433594 C 16.039062 8.433594 15.851562 8.433594 15.667969 8.433594 C 15.484375 8.433594 15.300781 8.433594 15.113281 8.433594 Z M 20.121094 16.355469 C 20.121094 16.542969 20.121094 16.734375 20.121094 16.921875 C 19.9375 16.921875 19.75 16.921875 19.566406 16.921875 C 19.378906 16.921875 19.195312 16.921875 19.007812 16.921875 C 19.007812 16.734375 19.007812 16.542969 19.007812 16.355469 C 19.382812 16.355469 19.753906 16.355469 20.121094 16.355469 Z M 21.238281 14.09375 C 21.054688 14.09375 20.867188 14.09375 20.679688 14.09375 C 20.679688 13.902344 20.679688 13.714844 20.679688 13.527344 C 20.867188 13.527344 21.054688 13.527344 21.238281 13.527344 C 21.238281 13.714844 21.238281 13.902344 21.238281 14.09375 Z M 20.679688 14.09375 C 20.679688 14.28125 20.679688 14.46875 20.679688 14.65625 C 20.496094 14.65625 20.308594 14.65625 20.121094 14.65625 C 20.121094 14.46875 20.121094 14.28125 20.121094 14.09375 C 20.308594 14.09375 20.496094 14.09375 20.679688 14.09375 Z M 20.121094 14.65625 C 20.121094 14.847656 20.121094 15.035156 20.121094 15.222656 C 19.9375 15.222656 19.75 15.222656 19.566406 15.222656 C 19.566406 15.035156 19.566406 14.847656 19.566406 14.65625 C 19.753906 14.65625 19.9375 14.65625 20.121094 14.65625 Z M 19.566406 15.222656 C 19.566406 15.414062 19.566406 15.601562 19.566406 15.789062 C 19.382812 15.789062 19.195312 15.789062 19.011719 15.789062 C 19.011719 15.601562 19.011719 15.414062 19.011719 15.222656 C 19.195312 15.222656 19.382812 15.222656 19.566406 15.222656 Z M 22.90625 11.261719 C 22.90625 11.640625 22.90625 12.019531 22.90625 12.394531 C 22.722656 12.394531 22.535156 12.394531 22.351562 12.394531 C 22.351562 12.015625 22.351562 11.636719 22.351562 11.261719 C 22.535156 11.261719 22.722656 11.261719 22.90625 11.261719 Z M 22.351562 12.394531 C 22.351562 12.582031 22.351562 12.773438 22.351562 12.960938 C 22.164062 12.960938 21.976562 12.960938 21.792969 12.960938 C 21.792969 12.773438 21.792969 12.582031 21.792969 12.394531 C 21.976562 12.394531 22.164062 12.394531 22.351562 12.394531 Z M 21.792969 12.960938 C 21.792969 13.148438 21.792969 13.335938 21.792969 13.527344 C 21.609375 13.527344 21.421875 13.527344 21.234375 13.527344 C 21.234375 13.335938 21.234375 13.148438 21.234375 12.960938 C 21.421875 12.960938 21.605469 12.960938 21.792969 12.960938 Z M 15.671875 23.144531 C 15.671875 24.46875 15.671875 25.789062 15.671875 27.109375 C 15.855469 27.109375 16.042969 27.109375 16.226562 27.109375 C 16.414062 27.109375 16.601562 27.109375 16.785156 27.109375 C 16.785156 26.917969 16.785156 26.730469 16.785156 26.542969 C 16.96875 26.542969 17.15625 26.542969 17.339844 26.542969 C 17.339844 26.351562 17.339844 26.164062 17.339844 25.976562 C 17.714844 25.976562 18.085938 25.976562 18.453125 25.976562 C 18.453125 25.789062 18.453125 25.597656 18.453125 25.410156 C 18.824219 25.410156 19.195312 25.410156 19.566406 25.410156 C 19.566406 25.222656 19.566406 25.03125 19.566406 24.84375 C 19.9375 24.84375 20.308594 24.84375 20.675781 24.84375 C 20.675781 24.65625 20.675781 24.464844 20.675781 24.277344 C 21.050781 24.277344 21.421875 24.277344 21.789062 24.277344 C 21.789062 24.089844 21.789062 23.898438 21.789062 23.710938 C 22.160156 23.710938 22.535156 23.710938 22.902344 23.710938 C 22.902344 23.523438 22.902344 23.332031 22.902344 23.144531 C 23.273438 23.144531 23.644531 23.144531 24.011719 23.144531 C 24.011719 22.957031 24.011719 22.765625 24.011719 22.578125 C 24.199219 22.578125 24.386719 22.578125 24.570312 22.578125 C 24.570312 21.449219 24.570312 20.3125 24.570312 19.183594 C 24.570312 18.996094 24.570312 18.804688 24.570312 18.617188 C 24.386719 18.617188 24.199219 18.617188 24.011719 18.617188 C 23.828125 18.617188 23.640625 18.617188 23.457031 18.617188 C 23.273438 18.617188 23.085938 18.617188 22.898438 18.617188 C 22.898438 18.804688 22.898438 18.996094 22.898438 19.183594 C 22.714844 19.183594 22.527344 19.183594 22.34375 19.183594 C 22.15625 19.183594 21.972656 19.183594 21.785156 19.183594 C 21.601562 19.183594 21.414062 19.183594 21.230469 19.183594 C 21.230469 19.371094 21.230469 19.5625 21.230469 19.75 C 21.042969 19.75 20.855469 19.75 20.671875 19.75 C 20.488281 19.75 20.300781 19.75 20.117188 19.75 C 20.117188 19.9375 20.117188 20.128906 20.117188 20.316406 C 19.929688 20.316406 19.742188 20.316406 19.558594 20.316406 C 19.375 20.316406 19.1875 20.316406 19 20.316406 C 19 20.503906 19 20.695312 19 20.882812 C 18.816406 20.882812 18.628906 20.882812 18.445312 20.882812 C 18.257812 20.882812 18.074219 20.882812 17.886719 20.882812 C 17.886719 21.070312 17.886719 21.261719 17.886719 21.449219 C 17.703125 21.449219 17.515625 21.449219 17.332031 21.449219 C 17.144531 21.449219 16.960938 21.449219 16.773438 21.449219 C 16.773438 21.636719 16.773438 21.824219 16.773438 22.015625 C 16.589844 22.015625 16.402344 22.015625 16.21875 22.015625 C 16.21875 22.203125 16.21875 22.390625 16.21875 22.582031 C 16.03125 22.582031 15.84375 22.582031 15.660156 22.582031 Z M 16.78125 19.183594 C 16.78125 18.996094 16.78125 18.808594 16.78125 18.621094 C 17.15625 18.621094 17.527344 18.621094 17.894531 18.621094 C 17.894531 18.808594 17.894531 18.996094 17.894531 19.183594 C 17.710938 19.183594 17.523438 19.183594 17.339844 19.183594 C 17.15625 19.183594 16.96875 19.183594 16.78125 19.183594 Z M 16.78125 19.183594 " fill-opacity="1" fill-rule="evenodd"/></g><g clip-path="url(#e57b6831c7)"><path fill="#d8d8d8" d="M 5.09375 15.222656 C 5.277344 15.222656 5.464844 15.222656 5.652344 15.222656 C 5.835938 15.222656 6.023438 15.222656 6.207031 15.222656 L 6.207031 15.789062 L 7.320312 15.789062 C 7.320312 15.976562 7.320312 16.167969 7.320312 16.355469 C 7.691406 16.355469 8.0625 16.355469 8.429688 16.355469 C 8.429688 16.542969 8.429688 16.734375 8.429688 16.921875 C 8.804688 16.921875 9.175781 16.921875 9.542969 16.921875 C 9.542969 17.109375 9.542969 17.300781 9.542969 17.488281 C 9.914062 17.488281 10.285156 17.488281 10.65625 17.488281 C 10.65625 17.675781 10.65625 17.867188 10.65625 18.054688 C 11.027344 18.054688 11.398438 18.054688 11.765625 18.054688 C 11.765625 18.242188 11.765625 18.433594 11.765625 18.621094 C 12.140625 18.621094 12.511719 18.621094 12.878906 18.621094 C 12.878906 18.808594 12.878906 19 12.878906 19.1875 C 13.25 19.1875 13.621094 19.1875 13.992188 19.1875 C 13.992188 19.375 13.992188 19.566406 13.992188 19.753906 C 14.363281 19.753906 14.734375 19.753906 15.101562 19.753906 C 15.101562 16.171875 15.101562 12.585938 15.101562 9.003906 C 14.917969 9.003906 14.730469 9.003906 14.546875 9.003906 C 14.363281 9.003906 14.175781 9.003906 13.988281 9.003906 C 13.804688 9.003906 13.617188 9.003906 13.433594 9.003906 C 13.433594 8.8125 13.433594 8.625 13.433594 8.4375 C 13.246094 8.4375 13.0625 8.4375 12.875 8.4375 C 12.691406 8.4375 12.503906 8.4375 12.320312 8.4375 C 12.320312 8.246094 12.320312 8.058594 12.320312 7.871094 C 12.132812 7.871094 11.945312 7.871094 11.761719 7.871094 C 11.578125 7.871094 11.390625 7.871094 11.203125 7.871094 C 11.203125 7.683594 11.203125 7.492188 11.203125 7.304688 C 11.019531 7.304688 10.832031 7.304688 10.648438 7.304688 C 10.464844 7.304688 10.277344 7.304688 10.089844 7.304688 C 10.089844 7.117188 10.089844 6.925781 10.089844 6.738281 C 9.90625 6.738281 9.71875 6.738281 9.535156 6.738281 C 9.347656 6.738281 9.164062 6.738281 8.976562 6.738281 C 8.976562 6.550781 8.976562 6.359375 8.976562 6.171875 C 8.792969 6.171875 8.605469 6.171875 8.421875 6.171875 C 8.234375 6.171875 8.046875 6.171875 7.863281 6.171875 C 7.863281 5.984375 7.863281 5.792969 7.863281 5.605469 C 7.679688 5.605469 7.492188 5.605469 7.308594 5.605469 C 7.121094 5.605469 6.933594 5.605469 6.75 5.605469 C 6.75 5.417969 6.75 5.226562 6.75 5.039062 C 6.566406 5.039062 6.378906 5.039062 6.191406 5.039062 C 6.007812 5.039062 5.820312 5.039062 5.636719 5.039062 C 5.636719 4.851562 5.636719 4.660156 5.636719 4.472656 C 5.449219 4.472656 5.265625 4.472656 5.078125 4.472656 C 4.894531 4.472656 4.707031 4.472656 4.523438 4.472656 L 4.523438 14.261719 L 5.078125 14.261719 L 5.078125 15.21875 Z M 5.09375 17.488281 C 4.910156 17.488281 4.722656 17.488281 4.535156 17.488281 L 3.980469 17.488281 L 3.980469 20.882812 L 4.535156 20.882812 C 4.535156 21.070312 4.535156 21.261719 4.535156 21.449219 C 4.910156 21.449219 5.28125 21.449219 5.648438 21.449219 C 5.648438 21.636719 5.648438 21.828125 5.648438 22.015625 C 6.019531 22.015625 6.390625 22.015625 6.761719 22.015625 C 6.761719 22.203125 6.761719 22.394531 6.761719 22.582031 C 7.132812 22.582031 7.503906 22.582031 7.871094 22.582031 C 7.871094 22.769531 7.871094 22.960938 7.871094 23.148438 C 8.246094 23.148438 8.617188 23.148438 8.984375 23.148438 C 8.984375 23.335938 8.984375 23.527344 8.984375 23.714844 C 9.355469 23.714844 9.726562 23.714844 10.097656 23.714844 C 10.097656 23.902344 10.097656 24.09375 10.097656 24.28125 C 10.46875 24.28125 10.839844 24.28125 11.207031 24.28125 C 11.207031 24.46875 11.207031 24.660156 11.207031 24.847656 C 11.582031 24.847656 11.953125 24.847656 12.320312 24.847656 C 12.320312 25.035156 12.320312 25.226562 12.320312 25.414062 C 12.691406 25.414062 13.0625 25.414062 13.433594 25.414062 C 13.433594 25.601562 13.433594 25.789062 13.433594 25.980469 C 13.617188 25.980469 13.804688 25.980469 13.988281 25.980469 C 13.988281 26.167969 13.988281 26.355469 13.988281 26.546875 C 14.441406 26.546875 14.890625 26.546875 15.339844 26.546875 C 15.339844 26.734375 15.339844 26.921875 15.339844 27.109375 C 15.445312 27.109375 15.554688 27.109375 15.660156 27.109375 C 15.660156 25.789062 15.660156 24.46875 15.660156 23.148438 L 15.660156 22.582031 C 15.476562 22.582031 15.289062 22.582031 15.101562 22.582031 C 15.101562 22.394531 15.101562 22.207031 15.101562 22.019531 C 14.917969 22.019531 14.730469 22.019531 14.546875 22.019531 C 14.363281 22.019531 14.175781 22.019531 13.988281 22.019531 C 13.988281 21.828125 13.988281 21.640625 13.988281 21.453125 C 13.804688 21.453125 13.617188 21.453125 13.433594 21.453125 C 13.246094 21.453125 13.0625 21.453125 12.875 21.453125 C 12.691406 21.453125 12.503906 21.453125 12.320312 21.453125 C 12.320312 21.261719 12.320312 21.074219 12.320312 20.886719 C 12.132812 20.886719 11.945312 20.886719 11.761719 20.886719 C 11.761719 20.699219 11.761719 20.507812 11.761719 20.320312 C 11.578125 20.320312 11.390625 20.320312 11.203125 20.320312 C 11.019531 20.320312 10.832031 20.320312 10.648438 20.320312 C 10.464844 20.320312 10.277344 20.320312 10.089844 20.320312 C 10.089844 20.132812 10.089844 19.941406 10.089844 19.753906 C 9.90625 19.753906 9.71875 19.753906 9.535156 19.753906 C 9.347656 19.753906 9.164062 19.753906 8.976562 19.753906 C 8.976562 19.566406 8.976562 19.375 8.976562 19.1875 C 8.792969 19.1875 8.605469 19.1875 8.421875 19.1875 C 8.234375 19.1875 8.046875 19.1875 7.863281 19.1875 C 7.863281 19 7.863281 18.808594 7.863281 18.621094 C 7.679688 18.621094 7.492188 18.621094 7.308594 18.621094 C 7.121094 18.621094 6.933594 18.621094 6.75 18.621094 C 6.75 18.433594 6.75 18.242188 6.75 18.054688 C 6.566406 18.054688 6.378906 18.054688 6.191406 18.054688 C 6.007812 18.054688 5.820312 18.054688 5.636719 18.054688 C 5.636719 17.867188 5.636719 17.675781 5.636719 17.488281 C 5.464844 17.488281 5.277344 17.488281 5.09375 17.488281 Z M 5.09375 17.488281 " fill-opacity="1" fill-rule="evenodd"/></g><g clip-path="url(#b86867f73b)"><path fill="#000000" d="M 3.980469 3.90625 C 3.980469 7.445312 3.980469 10.988281 3.980469 14.53125 C 4.164062 14.53125 4.351562 14.53125 4.535156 14.53125 L 4.535156 15.238281 C 4.722656 15.238281 4.910156 15.238281 5.09375 15.238281 C 5.09375 15.425781 5.09375 15.617188 5.09375 15.804688 C 5.277344 15.804688 5.464844 15.804688 5.652344 15.804688 L 5.652344 16.371094 C 5.464844 16.371094 5.277344 16.371094 5.09375 16.371094 C 5.09375 16.558594 5.09375 16.75 5.09375 16.9375 L 3.421875 16.9375 L 3.421875 21.488281 L 4.546875 21.488281 C 4.546875 21.679688 4.546875 21.867188 4.546875 22.054688 C 4.917969 22.054688 5.289062 22.054688 5.660156 22.054688 C 5.660156 22.242188 5.660156 22.433594 5.660156 22.621094 C 6.03125 22.621094 6.402344 22.621094 6.769531 22.621094 C 6.769531 22.808594 6.769531 23 6.769531 23.1875 C 7.144531 23.1875 7.515625 23.1875 7.882812 23.1875 C 7.882812 23.375 7.882812 23.566406 7.882812 23.753906 C 8.253906 23.753906 8.628906 23.753906 8.996094 23.753906 C 8.996094 23.941406 8.996094 24.132812 8.996094 24.320312 C 9.367188 24.320312 9.738281 24.320312 10.105469 24.320312 C 10.105469 24.507812 10.105469 24.699219 10.105469 24.886719 C 10.480469 24.886719 10.851562 24.886719 11.21875 24.886719 C 11.21875 25.074219 11.21875 25.265625 11.21875 25.453125 C 11.589844 25.453125 11.964844 25.453125 12.332031 25.453125 C 12.332031 25.640625 12.332031 25.832031 12.332031 26.019531 C 12.703125 26.019531 13.074219 26.019531 13.441406 26.019531 C 13.441406 26.207031 13.441406 26.398438 13.441406 26.585938 C 13.628906 26.585938 13.816406 26.585938 14 26.585938 C 14 26.773438 14 26.964844 14 27.152344 C 14.449219 27.152344 14.902344 27.152344 15.351562 27.152344 C 15.351562 27.339844 15.351562 27.527344 15.351562 27.71875 C 15.828125 27.71875 16.304688 27.71875 16.785156 27.71875 C 16.785156 27.527344 16.785156 27.339844 16.785156 27.152344 C 16.96875 27.152344 17.15625 27.152344 17.339844 27.152344 C 17.339844 26.964844 17.339844 26.773438 17.339844 26.585938 C 17.714844 26.585938 18.085938 26.585938 18.453125 26.585938 C 18.453125 26.398438 18.453125 26.207031 18.453125 26.019531 C 18.824219 26.019531 19.195312 26.019531 19.566406 26.019531 C 19.566406 25.832031 19.566406 25.640625 19.566406 25.453125 C 19.9375 25.453125 20.308594 25.453125 20.675781 25.453125 C 20.675781 25.265625 20.675781 25.074219 20.675781 24.886719 C 21.050781 24.886719 21.421875 24.886719 21.789062 24.886719 C 21.789062 24.699219 21.789062 24.507812 21.789062 24.320312 C 22.160156 24.320312 22.535156 24.320312 22.902344 24.320312 C 22.902344 24.132812 22.902344 23.941406 22.902344 23.753906 C 23.273438 23.753906 23.644531 23.753906 24.011719 23.753906 C 24.011719 23.566406 24.011719 23.375 24.011719 23.1875 C 24.199219 23.1875 24.386719 23.1875 24.570312 23.1875 C 24.570312 23 24.570312 22.808594 24.570312 22.621094 C 24.753906 22.621094 24.941406 22.621094 25.128906 22.621094 C 25.128906 21.300781 25.128906 19.980469 25.128906 18.660156 C 24.941406 18.660156 24.753906 18.660156 24.570312 18.660156 C 24.570312 18.472656 24.570312 18.28125 24.570312 18.09375 C 24.386719 18.09375 24.199219 18.09375 24.011719 18.09375 C 24.011719 17.90625 24.011719 17.714844 24.011719 17.527344 C 23.828125 17.527344 23.640625 17.527344 23.457031 17.527344 C 23.457031 17.339844 23.457031 17.152344 23.457031 16.960938 C 23.085938 16.960938 22.714844 16.960938 22.34375 16.960938 C 22.34375 16.773438 22.34375 16.585938 22.34375 16.394531 C 21.972656 16.394531 21.601562 16.394531 21.234375 16.394531 C 21.234375 16.207031 21.234375 16.019531 21.234375 15.832031 C 21.605469 15.832031 21.976562 15.832031 22.34375 15.832031 C 22.34375 15.640625 22.34375 15.453125 22.34375 15.265625 C 22.714844 15.265625 23.089844 15.265625 23.457031 15.265625 C 23.457031 15.074219 23.457031 14.886719 23.457031 14.699219 C 23.640625 14.699219 23.828125 14.699219 24.011719 14.699219 L 24.011719 10.691406 C 24.199219 10.691406 24.386719 10.691406 24.570312 10.691406 C 24.570312 9.183594 24.570312 7.675781 24.570312 6.164062 C 24.386719 6.164062 24.199219 6.164062 24.011719 6.164062 C 24.011719 5.976562 24.011719 5.785156 24.011719 5.597656 C 23.828125 5.597656 23.640625 5.597656 23.457031 5.597656 C 23.457031 5.410156 23.457031 5.21875 23.457031 5.03125 C 23.273438 5.03125 23.085938 5.03125 22.898438 5.03125 C 22.898438 4.84375 22.898438 4.652344 22.898438 4.464844 C 22.527344 4.464844 22.15625 4.464844 21.789062 4.464844 C 21.789062 4.277344 21.789062 4.085938 21.789062 3.898438 C 21.414062 3.898438 21.042969 3.898438 20.675781 3.898438 C 20.675781 3.710938 20.675781 3.523438 20.675781 3.332031 C 20.304688 3.332031 19.933594 3.332031 19.5625 3.332031 C 19.5625 3.144531 19.5625 2.957031 19.5625 2.765625 C 19.007812 2.765625 18.453125 2.765625 17.894531 2.765625 C 17.894531 2.578125 17.894531 2.390625 17.894531 2.203125 C 16.222656 2.203125 14.554688 2.203125 12.882812 2.203125 C 12.882812 2.011719 12.882812 1.824219 12.882812 1.636719 C 11.585938 1.636719 10.285156 1.636719 8.988281 1.636719 C 8.988281 1.824219 8.988281 2.011719 8.988281 2.203125 C 8.429688 2.203125 7.875 2.203125 7.316406 2.203125 C 7.316406 2.390625 7.316406 2.578125 7.316406 2.765625 C 6.757812 2.765625 6.203125 2.765625 5.648438 2.765625 C 5.648438 2.957031 5.648438 3.144531 5.648438 3.332031 C 5.273438 3.332031 4.902344 3.332031 4.535156 3.332031 C 4.535156 3.523438 4.535156 3.710938 4.535156 3.898438 C 4.351562 3.90625 4.167969 3.90625 3.980469 3.90625 Z M 4.535156 14.261719 L 4.535156 3.90625 C 4.910156 3.90625 5.28125 3.90625 5.648438 3.90625 C 5.648438 3.71875 5.648438 3.527344 5.648438 3.339844 C 6.207031 3.339844 6.761719 3.339844 7.316406 3.339844 C 7.316406 3.152344 7.316406 2.960938 7.316406 2.773438 C 7.875 2.773438 8.429688 2.773438 8.988281 2.773438 C 8.988281 2.960938 8.988281 3.152344 8.988281 3.339844 C 9.359375 3.339844 9.730469 3.339844 10.101562 3.339844 C 10.101562 3.527344 10.101562 3.71875 10.101562 3.90625 C 10.472656 3.90625 10.84375 3.90625 11.210938 3.90625 C 11.210938 4.09375 11.210938 4.285156 11.210938 4.472656 C 11.585938 4.472656 11.957031 4.472656 12.324219 4.472656 C 12.324219 4.660156 12.324219 4.851562 12.324219 5.039062 C 12.695312 5.039062 13.066406 5.039062 13.4375 5.039062 C 13.4375 5.226562 13.4375 5.417969 13.4375 5.605469 C 13.621094 5.605469 13.808594 5.605469 13.992188 5.605469 C 13.992188 5.792969 13.992188 5.984375 13.992188 6.171875 C 14.363281 6.171875 14.738281 6.171875 15.105469 6.171875 C 15.105469 6.359375 15.105469 6.550781 15.105469 6.738281 C 15.476562 6.738281 15.847656 6.738281 16.21875 6.738281 C 16.21875 6.925781 16.21875 7.117188 16.21875 7.304688 C 16.773438 7.304688 17.328125 7.304688 17.886719 7.304688 C 17.886719 11.078125 17.886719 14.851562 17.886719 18.621094 C 17.515625 18.621094 17.144531 18.621094 16.777344 18.621094 C 16.777344 18.808594 16.777344 19 16.777344 19.1875 C 16.402344 19.1875 16.03125 19.1875 15.664062 19.1875 C 15.664062 19.375 15.664062 19.566406 15.664062 19.753906 C 15.105469 19.753906 14.550781 19.753906 13.992188 19.753906 C 13.992188 19.566406 13.992188 19.375 13.992188 19.1875 C 13.621094 19.1875 13.25 19.1875 12.882812 19.1875 C 12.882812 19 12.882812 18.808594 12.882812 18.621094 C 12.507812 18.621094 12.136719 18.621094 11.769531 18.621094 C 11.769531 18.433594 11.769531 18.242188 11.769531 18.054688 C 11.398438 18.054688 11.023438 18.054688 10.65625 18.054688 C 10.65625 17.867188 10.65625 17.675781 10.65625 17.488281 C 10.285156 17.488281 9.914062 17.488281 9.546875 17.488281 C 9.546875 17.300781 9.546875 17.109375 9.546875 16.921875 C 9.171875 16.921875 8.800781 16.921875 8.433594 16.921875 C 8.433594 16.734375 8.433594 16.542969 8.433594 16.355469 C 8.0625 16.355469 7.6875 16.355469 7.320312 16.355469 C 7.320312 16.167969 7.320312 15.976562 7.320312 15.789062 L 6.210938 15.789062 L 6.210938 15.222656 C 6.023438 15.222656 5.835938 15.222656 5.652344 15.222656 C 5.46875 15.222656 5.28125 15.222656 5.09375 15.222656 L 5.09375 14.246094 Z M 14 26.542969 C 14 26.355469 14 26.164062 14 25.976562 C 13.816406 25.976562 13.628906 25.976562 13.441406 25.976562 C 13.441406 25.789062 13.441406 25.597656 13.441406 25.410156 C 13.070312 25.410156 12.699219 25.410156 12.332031 25.410156 C 12.332031 25.222656 12.332031 25.03125 12.332031 24.84375 C 11.960938 24.84375 11.585938 24.84375 11.21875 24.84375 C 11.21875 24.65625 11.21875 24.46875 11.21875 24.277344 C 10.847656 24.277344 10.476562 24.277344 10.105469 24.277344 C 10.105469 24.089844 10.105469 23.902344 10.105469 23.710938 C 9.734375 23.710938 9.363281 23.710938 8.996094 23.710938 C 8.996094 23.523438 8.996094 23.335938 8.996094 23.144531 C 8.625 23.144531 8.25 23.144531 7.882812 23.144531 C 7.882812 22.957031 7.882812 22.769531 7.882812 22.582031 C 7.511719 22.582031 7.140625 22.582031 6.769531 22.582031 C 6.769531 22.390625 6.769531 22.203125 6.769531 22.015625 C 6.398438 22.015625 6.027344 22.015625 5.660156 22.015625 C 5.660156 21.824219 5.660156 21.636719 5.660156 21.449219 C 5.289062 21.449219 4.914062 21.449219 4.546875 21.449219 C 4.546875 21.261719 4.546875 21.070312 4.546875 20.882812 L 3.992188 20.882812 L 3.992188 17.488281 L 5.097656 17.488281 C 5.097656 17.296875 5.097656 17.109375 5.097656 16.921875 C 5.28125 16.921875 5.46875 16.921875 5.652344 16.921875 C 5.652344 16.734375 5.652344 16.542969 5.652344 16.355469 L 7.328125 16.355469 C 7.328125 16.542969 7.328125 16.734375 7.328125 16.921875 C 7.699219 16.921875 8.070312 16.921875 8.4375 16.921875 C 8.4375 17.109375 8.4375 17.296875 8.4375 17.488281 C 8.808594 17.488281 9.183594 17.488281 9.550781 17.488281 C 9.550781 17.675781 9.550781 17.863281 9.550781 18.054688 C 9.921875 18.054688 10.292969 18.054688 10.664062 18.054688 C 10.664062 18.242188 10.664062 18.429688 10.664062 18.621094 C 11.035156 18.621094 11.40625 18.621094 11.773438 18.621094 C 11.773438 18.808594 11.773438 18.996094 11.773438 19.183594 C 12.144531 19.183594 12.519531 19.183594 12.886719 19.183594 C 12.886719 19.375 12.886719 19.5625 12.886719 19.75 C 13.257812 19.75 13.628906 19.75 14 19.75 C 14 19.941406 14 20.128906 14 20.316406 C 14.554688 20.316406 15.109375 20.316406 15.667969 20.316406 C 15.667969 20.128906 15.667969 19.941406 15.667969 19.75 C 16.039062 19.75 16.414062 19.75 16.78125 19.75 C 16.78125 19.5625 16.78125 19.375 16.78125 19.183594 C 17.152344 19.183594 17.523438 19.183594 17.894531 19.183594 C 17.894531 18.996094 17.894531 18.808594 17.894531 18.621094 C 18.078125 18.621094 18.265625 18.621094 18.449219 18.621094 L 18.449219 17.488281 C 18.636719 17.488281 18.820312 17.488281 19.007812 17.488281 C 19.007812 17.300781 19.007812 17.109375 19.007812 16.921875 C 19.378906 16.921875 19.75 16.921875 20.117188 16.921875 C 20.117188 16.734375 20.117188 16.542969 20.117188 16.355469 C 20.492188 16.355469 20.863281 16.355469 21.230469 16.355469 C 21.230469 16.542969 21.230469 16.734375 21.230469 16.921875 C 21.601562 16.921875 21.972656 16.921875 22.34375 16.921875 C 22.34375 17.109375 22.34375 17.300781 22.34375 17.488281 C 22.714844 17.488281 23.085938 17.488281 23.453125 17.488281 C 23.453125 17.675781 23.453125 17.867188 23.453125 18.054688 C 23.640625 18.054688 23.828125 18.054688 24.011719 18.054688 C 24.011719 18.242188 24.011719 18.433594 24.011719 18.621094 C 24.195312 18.621094 24.382812 18.621094 24.570312 18.621094 C 24.570312 19.941406 24.570312 21.261719 24.570312 22.582031 C 24.382812 22.582031 24.195312 22.582031 24.011719 22.582031 C 24.011719 22.769531 24.011719 22.960938 24.011719 23.148438 C 23.640625 23.148438 23.269531 23.148438 22.898438 23.148438 C 22.898438 23.335938 22.898438 23.527344 22.898438 23.714844 C 22.527344 23.714844 22.15625 23.714844 21.789062 23.714844 C 21.789062 23.902344 21.789062 24.09375 21.789062 24.28125 C 21.414062 24.28125 21.042969 24.28125 20.675781 24.28125 C 20.675781 24.46875 20.675781 24.660156 20.675781 24.847656 C 20.304688 24.847656 19.933594 24.847656 19.5625 24.847656 C 19.5625 25.035156 19.5625 25.226562 19.5625 25.414062 C 19.191406 25.414062 18.820312 25.414062 18.453125 25.414062 C 18.453125 25.601562 18.453125 25.789062 18.453125 25.980469 C 18.078125 25.980469 17.707031 25.980469 17.339844 25.980469 C 17.339844 26.167969 17.339844 26.355469 17.339844 26.546875 C 17.15625 26.546875 16.96875 26.546875 16.78125 26.546875 C 16.78125 26.734375 16.78125 26.921875 16.78125 27.109375 C 16.304688 27.109375 15.828125 27.109375 15.351562 27.109375 C 15.351562 26.921875 15.351562 26.734375 15.351562 26.546875 C 14.902344 26.542969 14.449219 26.542969 14 26.542969 Z M 23.460938 14.65625 C 23.089844 14.65625 22.71875 14.65625 22.351562 14.65625 C 22.351562 14.847656 22.351562 15.035156 22.351562 15.222656 C 21.976562 15.222656 21.605469 15.222656 21.238281 15.222656 C 21.238281 15.414062 21.238281 15.601562 21.238281 15.789062 C 20.867188 15.789062 20.496094 15.789062 20.125 15.789062 C 20.125 15.976562 20.125 16.167969 20.125 16.355469 C 19.753906 16.355469 19.382812 16.355469 19.015625 16.355469 C 19.015625 16.167969 19.015625 15.976562 19.015625 15.789062 C 19.199219 15.789062 19.386719 15.789062 19.570312 15.789062 C 19.570312 15.601562 19.570312 15.414062 19.570312 15.222656 C 19.757812 15.222656 19.941406 15.222656 20.128906 15.222656 C 20.128906 15.035156 20.128906 14.847656 20.128906 14.65625 C 20.3125 14.65625 20.5 14.65625 20.683594 14.65625 C 20.683594 14.46875 20.683594 14.28125 20.683594 14.09375 C 20.871094 14.09375 21.054688 14.09375 21.242188 14.09375 C 21.242188 13.902344 21.242188 13.714844 21.242188 13.527344 C 21.425781 13.527344 21.613281 13.527344 21.796875 13.527344 C 21.796875 13.335938 21.796875 13.148438 21.796875 12.960938 C 21.984375 12.960938 22.171875 12.960938 22.355469 12.960938 C 22.355469 12.773438 22.355469 12.582031 22.355469 12.394531 C 22.539062 12.394531 22.726562 12.394531 22.914062 12.394531 C 22.914062 12.015625 22.914062 11.636719 22.914062 11.261719 C 23.097656 11.261719 23.285156 11.261719 23.46875 11.261719 Z M 18.453125 16.921875 L 18.453125 16.355469 C 18.636719 16.355469 18.824219 16.355469 19.011719 16.355469 C 19.011719 16.542969 19.011719 16.734375 19.011719 16.921875 C 18.824219 16.921875 18.636719 16.921875 18.453125 16.921875 Z M 18.453125 15.789062 L 18.453125 7.300781 C 18.269531 7.300781 18.082031 7.300781 17.898438 7.300781 C 17.898438 7.113281 17.898438 6.925781 17.898438 6.734375 C 17.339844 6.734375 16.785156 6.734375 16.226562 6.734375 C 16.226562 6.546875 16.226562 6.359375 16.226562 6.167969 C 15.855469 6.167969 15.480469 6.167969 15.113281 6.167969 C 15.113281 5.980469 15.113281 5.792969 15.113281 5.601562 C 14.742188 5.601562 14.371094 5.601562 14.003906 5.601562 C 14.003906 5.414062 14.003906 5.226562 14.003906 5.039062 C 13.816406 5.039062 13.628906 5.039062 13.445312 5.039062 C 13.445312 4.847656 13.445312 4.660156 13.445312 4.472656 C 13.074219 4.472656 12.703125 4.472656 12.332031 4.472656 C 12.332031 4.28125 12.332031 4.09375 12.332031 3.90625 C 11.960938 3.90625 11.589844 3.90625 11.222656 3.90625 C 11.222656 3.71875 11.222656 3.527344 11.222656 3.339844 C 10.847656 3.339844 10.476562 3.339844 10.109375 3.339844 C 10.109375 3.152344 10.109375 2.960938 10.109375 2.773438 C 9.738281 2.773438 9.367188 2.773438 8.996094 2.773438 C 8.996094 2.585938 8.996094 2.394531 8.996094 2.207031 C 10.296875 2.207031 11.59375 2.207031 12.894531 2.207031 C 12.894531 2.394531 12.894531 2.585938 12.894531 2.773438 C 14.5625 2.773438 16.234375 2.773438 17.902344 2.773438 C 17.902344 2.960938 17.902344 3.152344 17.902344 3.339844 C 18.460938 3.339844 19.015625 3.339844 19.574219 3.339844 C 19.574219 3.527344 19.574219 3.71875 19.574219 3.90625 C 19.945312 3.90625 20.316406 3.90625 20.6875 3.90625 C 20.6875 4.09375 20.6875 4.28125 20.6875 4.472656 C 21.058594 4.472656 21.429688 4.472656 21.796875 4.472656 C 21.796875 4.660156 21.796875 4.847656 21.796875 5.039062 C 22.171875 5.039062 22.542969 5.039062 22.910156 5.039062 C 22.910156 5.226562 22.910156 5.414062 22.910156 5.601562 C 23.09375 5.601562 23.28125 5.601562 23.46875 5.601562 C 23.46875 5.792969 23.46875 5.980469 23.46875 6.167969 C 23.652344 6.167969 23.839844 6.167969 24.023438 6.167969 L 24.023438 10.128906 C 23.839844 10.128906 23.652344 10.128906 23.46875 10.128906 L 23.46875 10.699219 C 23.28125 10.699219 23.09375 10.699219 22.910156 10.699219 C 22.910156 10.886719 22.910156 11.078125 22.910156 11.265625 C 22.726562 11.265625 22.539062 11.265625 22.355469 11.265625 C 22.355469 11.644531 22.355469 12.023438 22.355469 12.398438 C 22.167969 12.398438 21.980469 12.398438 21.796875 12.398438 C 21.796875 12.585938 21.796875 12.773438 21.796875 12.964844 C 21.613281 12.964844 21.425781 12.964844 21.238281 12.964844 C 21.238281 13.152344 21.238281 13.339844 21.238281 13.53125 C 21.054688 13.53125 20.867188 13.53125 20.683594 13.53125 C 20.683594 13.71875 20.683594 13.90625 20.683594 14.09375 C 20.496094 14.09375 20.3125 14.09375 20.125 14.09375 C 20.125 14.285156 20.125 14.472656 20.125 14.660156 C 19.941406 14.660156 19.753906 14.660156 19.570312 14.660156 C 19.570312 14.851562 19.570312 15.039062 19.570312 15.226562 C 19.382812 15.226562 19.195312 15.226562 19.011719 15.226562 C 19.011719 15.414062 19.011719 15.605469 19.011719 15.792969 C 18.824219 15.789062 18.636719 15.789062 18.453125 15.789062 Z M 18.453125 15.789062 " fill-opacity="1" fill-rule="evenodd"/></g><path fill="#999999" d="M 10.660156 22.015625 C 10.285156 22.015625 9.914062 22.015625 9.546875 22.015625 C 9.546875 22.203125 9.546875 22.390625 9.546875 22.582031 C 9.917969 22.582031 10.289062 22.582031 10.660156 22.582031 C 10.660156 22.769531 10.660156 22.957031 10.660156 23.144531 C 11.03125 23.144531 11.402344 23.144531 11.769531 23.144531 C 11.769531 23.335938 11.769531 23.523438 11.769531 23.710938 C 12.144531 23.710938 12.515625 23.710938 12.882812 23.710938 C 12.882812 23.902344 12.882812 24.089844 12.882812 24.277344 C 13.253906 24.277344 13.625 24.277344 13.996094 24.277344 C 13.996094 24.089844 13.996094 23.902344 13.996094 23.710938 C 13.621094 23.710938 13.25 23.710938 12.882812 23.710938 C 12.882812 23.523438 12.882812 23.335938 12.882812 23.144531 C 12.511719 23.144531 12.140625 23.144531 11.769531 23.144531 C 11.769531 22.957031 11.769531 22.769531 11.769531 22.582031 C 11.398438 22.582031 11.027344 22.582031 10.660156 22.582031 C 10.660156 22.390625 10.660156 22.203125 10.660156 22.015625 Z M 10.660156 22.015625 " fill-opacity="1" fill-rule="evenodd"/><path fill="#000000" d="M 10.660156 22.015625 C 10.660156 21.824219 10.660156 21.636719 10.660156 21.449219 C 10.285156 21.449219 9.914062 21.449219 9.546875 21.449219 C 9.546875 21.636719 9.546875 21.824219 9.546875 22.015625 C 9.917969 22.015625 10.289062 22.015625 10.660156 22.015625 C 10.660156 22.203125 10.660156 22.390625 10.660156 22.582031 C 11.03125 22.582031 11.402344 22.582031 11.769531 22.582031 C 11.769531 22.769531 11.769531 22.957031 11.769531 23.144531 C 12.144531 23.144531 12.515625 23.144531 12.882812 23.144531 C 12.882812 23.335938 12.882812 23.523438 12.882812 23.710938 C 13.253906 23.710938 13.625 23.710938 13.996094 23.710938 C 13.996094 23.523438 13.996094 23.335938 13.996094 23.144531 C 13.621094 23.144531 13.25 23.144531 12.882812 23.144531 C 12.882812 22.957031 12.882812 22.769531 12.882812 22.582031 C 12.511719 22.582031 12.140625 22.582031 11.769531 22.582031 C 11.769531 22.390625 11.769531 22.203125 11.769531 22.015625 C 11.402344 22.015625 11.03125 22.015625 10.660156 22.015625 Z M 10.660156 22.015625 " fill-opacity="1" fill-rule="evenodd"/><path fill="#000000" d="M 5.09375 19.183594 C 5.277344 19.183594 5.464844 19.183594 5.652344 19.183594 C 5.652344 19.375 5.652344 19.5625 5.652344 19.75 C 5.464844 19.75 5.277344 19.75 5.09375 19.75 C 5.09375 19.5625 5.09375 19.375 5.09375 19.183594 Z M 5.652344 19.183594 C 5.652344 18.996094 5.652344 18.808594 5.652344 18.621094 C 5.464844 18.621094 5.277344 18.621094 5.09375 18.621094 C 4.910156 18.621094 4.722656 18.621094 4.535156 18.621094 C 4.535156 18.808594 4.535156 18.996094 4.535156 19.183594 C 4.535156 19.375 4.535156 19.5625 4.535156 19.75 C 4.722656 19.75 4.910156 19.75 5.09375 19.75 C 5.09375 19.941406 5.09375 20.128906 5.09375 20.316406 C 5.277344 20.316406 5.464844 20.316406 5.652344 20.316406 C 5.835938 20.316406 6.023438 20.316406 6.207031 20.316406 C 6.207031 20.128906 6.207031 19.941406 6.207031 19.75 C 6.207031 19.5625 6.207031 19.375 6.207031 19.183594 C 6.023438 19.183594 5.835938 19.183594 5.652344 19.183594 Z M 5.652344 19.183594 " fill-opacity="1" fill-rule="evenodd"/><path fill="#9dff87" d="M 5.652344 19.75 C 5.652344 19.5625 5.652344 19.375 5.652344 19.183594 C 5.464844 19.183594 5.277344 19.183594 5.09375 19.183594 C 5.09375 19.375 5.09375 19.5625 5.09375 19.75 C 5.277344 19.75 5.464844 19.75 5.652344 19.75 Z M 5.652344 19.75 " fill-opacity="1" fill-rule="evenodd"/><path fill="#000000" d="M 6.207031 6.734375 L 6.207031 14.105469 C 6.390625 14.105469 6.578125 14.105469 6.765625 14.105469 C 6.949219 14.105469 7.136719 14.105469 7.320312 14.105469 C 7.320312 14.292969 7.320312 14.484375 7.320312 14.671875 C 7.507812 14.671875 7.691406 14.671875 7.878906 14.671875 C 8.0625 14.671875 8.25 14.671875 8.433594 14.671875 C 8.433594 14.859375 8.433594 15.046875 8.433594 15.238281 C 8.621094 15.238281 8.808594 15.238281 8.992188 15.238281 C 9.175781 15.238281 9.363281 15.238281 9.546875 15.238281 C 9.546875 15.425781 9.546875 15.613281 9.546875 15.804688 C 9.734375 15.804688 9.921875 15.804688 10.105469 15.804688 C 10.289062 15.804688 10.476562 15.804688 10.664062 15.804688 C 10.664062 15.992188 10.664062 16.179688 10.664062 16.367188 C 10.847656 16.367188 11.035156 16.367188 11.21875 16.367188 C 11.40625 16.367188 11.589844 16.367188 11.777344 16.367188 C 11.777344 16.558594 11.777344 16.746094 11.777344 16.933594 C 11.960938 16.933594 12.148438 16.933594 12.332031 16.933594 C 12.519531 16.933594 12.703125 16.933594 12.890625 16.933594 C 12.890625 17.125 12.890625 17.3125 12.890625 17.5 C 13.074219 17.5 13.261719 17.5 13.445312 17.5 C 13.632812 17.5 13.820312 17.5 14.003906 17.5 C 14.003906 14.859375 14.003906 12.21875 14.003906 9.578125 C 13.820312 9.578125 13.632812 9.578125 13.445312 9.578125 C 13.261719 9.578125 13.074219 9.578125 12.890625 9.578125 C 12.890625 9.390625 12.890625 9.199219 12.890625 9.011719 C 12.703125 9.011719 12.519531 9.011719 12.332031 9.011719 C 12.148438 9.011719 11.960938 9.011719 11.777344 9.011719 C 11.777344 8.824219 11.777344 8.636719 11.777344 8.445312 C 11.589844 8.445312 11.40625 8.445312 11.21875 8.445312 C 11.035156 8.445312 10.847656 8.445312 10.664062 8.445312 C 10.664062 8.257812 10.664062 8.070312 10.664062 7.878906 C 10.476562 7.878906 10.289062 7.878906 10.105469 7.878906 C 9.921875 7.878906 9.734375 7.878906 9.546875 7.878906 C 9.546875 7.691406 9.546875 7.503906 9.546875 7.316406 C 9.363281 7.316406 9.175781 7.316406 8.992188 7.316406 C 8.808594 7.316406 8.621094 7.316406 8.433594 7.316406 C 8.433594 7.125 8.433594 6.9375 8.433594 6.75 C 8.25 6.75 8.0625 6.75 7.878906 6.75 C 7.691406 6.75 7.507812 6.75 7.320312 6.75 C 7.320312 6.558594 7.320312 6.371094 7.320312 6.183594 C 7.136719 6.183594 6.949219 6.183594 6.765625 6.183594 C 6.578125 6.183594 6.390625 6.183594 6.207031 6.183594 L 6.207031 6.753906 Z M 6.765625 7.300781 L 6.765625 6.730469 C 6.949219 6.730469 7.136719 6.730469 7.320312 6.730469 C 7.320312 6.917969 7.320312 7.109375 7.320312 7.296875 C 7.507812 7.296875 7.691406 7.296875 7.878906 7.296875 C 8.0625 7.296875 8.25 7.296875 8.433594 7.296875 C 8.433594 7.484375 8.433594 7.675781 8.433594 7.863281 C 8.621094 7.863281 8.808594 7.863281 8.992188 7.863281 C 9.175781 7.863281 9.363281 7.863281 9.546875 7.863281 C 9.546875 8.050781 9.546875 8.242188 9.546875 8.429688 C 9.734375 8.429688 9.921875 8.429688 10.105469 8.429688 C 10.289062 8.429688 10.476562 8.429688 10.664062 8.429688 C 10.664062 8.617188 10.664062 8.808594 10.664062 8.996094 C 10.847656 8.996094 11.035156 8.996094 11.21875 8.996094 C 11.40625 8.996094 11.589844 8.996094 11.777344 8.996094 C 11.777344 9.183594 11.777344 9.371094 11.777344 9.5625 C 11.960938 9.5625 12.148438 9.5625 12.332031 9.5625 C 12.519531 9.5625 12.703125 9.5625 12.890625 9.5625 C 12.890625 9.75 12.890625 9.9375 12.890625 10.128906 C 13.074219 10.128906 13.261719 10.128906 13.445312 10.128906 L 13.445312 16.917969 C 13.261719 16.917969 13.074219 16.917969 12.890625 16.917969 C 12.890625 16.730469 12.890625 16.539062 12.890625 16.351562 C 12.703125 16.351562 12.519531 16.351562 12.332031 16.351562 C 12.148438 16.351562 11.960938 16.351562 11.777344 16.351562 C 11.777344 16.164062 11.777344 15.972656 11.777344 15.785156 C 11.589844 15.785156 11.40625 15.785156 11.21875 15.785156 C 11.035156 15.785156 10.847656 15.785156 10.664062 15.785156 C 10.664062 15.597656 10.664062 15.40625 10.664062 15.21875 C 10.476562 15.21875 10.289062 15.21875 10.105469 15.21875 C 9.921875 15.21875 9.734375 15.21875 9.546875 15.21875 C 9.546875 15.03125 9.546875 14.839844 9.546875 14.652344 C 9.363281 14.652344 9.175781 14.652344 8.992188 14.652344 C 8.808594 14.652344 8.621094 14.652344 8.433594 14.652344 C 8.433594 14.464844 8.433594 14.273438 8.433594 14.085938 C 8.25 14.085938 8.0625 14.085938 7.878906 14.085938 C 7.691406 14.085938 7.507812 14.085938 7.320312 14.085938 C 7.320312 13.898438 7.320312 13.707031 7.320312 13.519531 C 7.136719 13.519531 6.949219 13.519531 6.765625 13.519531 Z M 6.765625 7.300781 " fill-opacity="1" fill-rule="evenodd"/><path fill="#0b69c6" d="M 6.765625 7.300781 L 6.765625 13.527344 C 6.949219 13.527344 7.136719 13.527344 7.320312 13.527344 C 7.320312 13.714844 7.320312 13.90625 7.320312 14.09375 C 7.507812 14.09375 7.691406 14.09375 7.878906 14.09375 C 8.0625 14.09375 8.25 14.09375 8.433594 14.09375 C 8.433594 14.28125 8.433594 14.472656 8.433594 14.660156 C 8.621094 14.660156 8.808594 14.660156 8.992188 14.660156 C 9.175781 14.660156 9.363281 14.660156 9.546875 14.660156 C 9.546875 14.847656 9.546875 15.039062 9.546875 15.226562 C 9.734375 15.226562 9.921875 15.226562 10.105469 15.226562 C 10.289062 15.226562 10.476562 15.226562 10.664062 15.226562 C 10.664062 15.414062 10.664062 15.605469 10.664062 15.792969 C 10.847656 15.792969 11.035156 15.792969 11.21875 15.792969 C 11.40625 15.792969 11.589844 15.792969 11.777344 15.792969 C 11.777344 15.980469 11.777344 16.171875 11.777344 16.359375 C 11.960938 16.359375 12.148438 16.359375 12.332031 16.359375 C 12.519531 16.359375 12.703125 16.359375 12.890625 16.359375 C 12.890625 16.546875 12.890625 16.734375 12.890625 16.925781 C 13.074219 16.925781 13.261719 16.925781 13.445312 16.925781 L 13.445312 10.128906 C 13.261719 10.128906 13.074219 10.128906 12.890625 10.128906 C 12.890625 9.941406 12.890625 9.753906 12.890625 9.566406 C 12.703125 9.566406 12.519531 9.566406 12.332031 9.566406 C 12.148438 9.566406 11.960938 9.566406 11.777344 9.566406 C 11.777344 9.375 11.777344 9.1875 11.777344 9 C 11.589844 9 11.40625 9 11.21875 9 C 11.035156 9 10.847656 9 10.664062 9 C 10.664062 8.808594 10.664062 8.621094 10.664062 8.433594 C 10.476562 8.433594 10.289062 8.433594 10.105469 8.433594 C 9.921875 8.433594 9.734375 8.433594 9.546875 8.433594 C 9.546875 8.246094 9.546875 8.054688 9.546875 7.867188 C 9.363281 7.867188 9.175781 7.867188 8.992188 7.867188 C 8.808594 7.867188 8.621094 7.867188 8.433594 7.867188 C 8.433594 7.679688 8.433594 7.488281 8.433594 7.300781 C 8.25 7.300781 8.0625 7.300781 7.878906 7.300781 C 7.691406 7.300781 7.507812 7.300781 7.320312 7.300781 C 7.320312 7.113281 7.320312 6.921875 7.320312 6.734375 C 7.136719 6.734375 6.949219 6.734375 6.765625 6.734375 Z M 6.765625 7.300781 " fill-opacity="1" fill-rule="evenodd"/><path fill="#4291e1" d="M 7.320312 7.300781 C 7.320312 7.113281 7.320312 6.925781 7.320312 6.734375 C 7.132812 6.734375 6.949219 6.734375 6.761719 6.734375 C 6.761719 6.738281 6.761719 6.742188 6.761719 6.746094 C 6.761719 6.75 6.761719 6.75 6.761719 6.753906 C 6.761719 6.757812 6.761719 6.757812 6.761719 6.761719 C 6.761719 6.765625 6.761719 6.769531 6.761719 6.773438 C 6.761719 6.777344 6.761719 6.777344 6.761719 6.78125 C 6.761719 6.785156 6.761719 6.785156 6.761719 6.789062 C 6.761719 6.792969 6.761719 6.796875 6.761719 6.800781 C 6.761719 6.800781 6.761719 6.804688 6.761719 6.808594 C 6.761719 6.8125 6.761719 6.8125 6.761719 6.816406 C 6.761719 6.820312 6.761719 6.824219 6.761719 6.828125 C 6.761719 6.828125 6.761719 6.832031 6.761719 6.835938 C 6.761719 6.839844 6.761719 6.839844 6.761719 6.84375 C 6.761719 6.847656 6.761719 6.851562 6.761719 6.851562 C 6.761719 6.855469 6.761719 6.859375 6.761719 6.863281 C 6.761719 6.867188 6.761719 6.867188 6.761719 6.871094 C 6.761719 6.875 6.761719 6.875 6.761719 6.878906 C 6.761719 6.882812 6.761719 6.886719 6.761719 6.890625 C 6.761719 6.894531 6.761719 6.894531 6.761719 6.898438 C 6.761719 6.902344 6.761719 6.902344 6.761719 6.90625 C 6.761719 6.910156 6.761719 6.914062 6.761719 6.917969 C 6.761719 6.921875 6.761719 6.921875 6.761719 6.925781 C 6.761719 6.929688 6.761719 6.929688 6.761719 6.933594 C 6.761719 6.9375 6.761719 6.941406 6.761719 6.945312 C 6.761719 6.949219 6.761719 6.949219 6.761719 6.953125 C 6.761719 6.957031 6.761719 6.957031 6.761719 6.960938 C 6.761719 6.964844 6.761719 6.96875 6.761719 6.972656 C 6.761719 6.972656 6.761719 6.976562 6.761719 6.980469 C 6.761719 6.984375 6.761719 6.984375 6.761719 6.988281 C 6.761719 6.992188 6.761719 6.996094 6.761719 6.996094 C 6.761719 7 6.761719 7.003906 6.761719 7.007812 C 6.761719 7.011719 6.761719 7.011719 6.761719 7.015625 C 6.761719 7.019531 6.761719 7.023438 6.761719 7.023438 C 6.761719 7.027344 6.761719 7.03125 6.761719 7.035156 C 6.761719 7.039062 6.761719 7.039062 6.761719 7.042969 C 6.761719 7.046875 6.761719 7.046875 6.761719 7.050781 C 6.761719 7.054688 6.761719 7.058594 6.761719 7.0625 C 6.761719 7.066406 6.761719 7.066406 6.761719 7.070312 C 6.761719 7.074219 6.761719 7.074219 6.761719 7.078125 C 6.761719 7.082031 6.761719 7.085938 6.761719 7.089844 C 6.761719 7.09375 6.761719 7.09375 6.761719 7.097656 C 6.761719 7.101562 6.761719 7.101562 6.761719 7.105469 C 6.761719 7.109375 6.761719 7.113281 6.761719 7.117188 C 6.761719 7.121094 6.761719 7.121094 6.761719 7.125 C 6.761719 7.128906 6.761719 7.128906 6.761719 7.132812 C 6.761719 7.136719 6.761719 7.140625 6.761719 7.144531 C 6.761719 7.144531 6.761719 7.148438 6.761719 7.152344 C 6.761719 7.15625 6.761719 7.15625 6.761719 7.160156 C 6.761719 7.164062 6.761719 7.167969 6.761719 7.167969 C 6.761719 7.171875 6.761719 7.175781 6.761719 7.179688 C 6.761719 7.183594 6.761719 7.183594 6.761719 7.1875 C 6.761719 7.191406 6.761719 7.195312 6.761719 7.195312 C 6.761719 7.199219 6.761719 7.203125 6.761719 7.207031 C 6.761719 7.210938 6.761719 7.210938 6.761719 7.214844 C 6.761719 7.21875 6.761719 7.21875 6.761719 7.222656 C 6.761719 7.226562 6.761719 7.230469 6.761719 7.234375 C 6.761719 7.238281 6.761719 7.238281 6.761719 7.242188 C 6.761719 7.246094 6.761719 7.246094 6.761719 7.25 C 6.761719 7.253906 6.761719 7.257812 6.761719 7.261719 C 6.761719 7.265625 6.761719 7.265625 6.761719 7.269531 C 6.761719 7.273438 6.761719 7.273438 6.761719 7.277344 C 6.761719 7.28125 6.761719 7.285156 6.761719 7.289062 C 6.761719 7.292969 6.761719 7.292969 6.761719 7.296875 C 6.761719 7.300781 6.761719 7.300781 6.761719 7.304688 C 6.761719 7.308594 6.761719 7.3125 6.761719 7.316406 C 6.761719 7.503906 6.761719 7.691406 6.761719 7.878906 C 6.949219 7.878906 7.132812 7.878906 7.320312 7.878906 C 7.320312 8.070312 7.320312 8.257812 7.320312 8.445312 C 7.503906 8.445312 7.691406 8.445312 7.875 8.445312 C 7.875 8.636719 7.875 8.824219 7.875 9.011719 C 8.0625 9.011719 8.246094 9.011719 8.433594 9.011719 C 8.433594 9.199219 8.433594 9.390625 8.433594 9.578125 C 8.617188 9.578125 8.804688 9.578125 8.988281 9.578125 C 8.988281 9.765625 8.988281 9.957031 8.988281 10.144531 C 9.175781 10.144531 9.363281 10.144531 9.546875 10.144531 C 9.546875 10.332031 9.546875 10.523438 9.546875 10.710938 C 9.546875 10.898438 9.546875 11.089844 9.546875 11.277344 C 9.546875 11.464844 9.546875 11.65625 9.546875 11.84375 C 9.546875 12.03125 9.546875 12.222656 9.546875 12.410156 C 9.730469 12.410156 9.917969 12.410156 10.105469 12.410156 C 10.105469 12.597656 10.105469 12.789062 10.105469 12.976562 C 10.105469 13.164062 10.105469 13.355469 10.105469 13.542969 C 10.289062 13.542969 10.476562 13.542969 10.660156 13.542969 C 10.660156 13.730469 10.660156 13.921875 10.660156 14.109375 C 10.660156 14.296875 10.660156 14.484375 10.660156 14.675781 C 10.84375 14.675781 11.03125 14.675781 11.21875 14.675781 C 11.21875 14.863281 11.21875 15.050781 11.21875 15.242188 C 11.402344 15.242188 11.589844 15.242188 11.773438 15.242188 C 11.773438 15.429688 11.773438 15.617188 11.773438 15.804688 C 11.960938 15.804688 12.144531 15.804688 12.332031 15.804688 C 12.332031 15.996094 12.332031 16.183594 12.332031 16.371094 C 12.515625 16.371094 12.703125 16.371094 12.886719 16.371094 C 12.886719 16.5625 12.886719 16.75 12.886719 16.9375 C 13.074219 16.9375 13.261719 16.9375 13.445312 16.9375 L 13.445312 10.144531 C 13.261719 10.144531 13.074219 10.144531 12.886719 10.144531 C 12.886719 9.957031 12.886719 9.765625 12.886719 9.578125 C 12.703125 9.578125 12.515625 9.578125 12.332031 9.578125 C 12.144531 9.578125 11.960938 9.578125 11.773438 9.578125 C 11.773438 9.390625 11.773438 9.199219 11.773438 9.011719 C 11.589844 9.011719 11.402344 9.011719 11.21875 9.011719 C 11.03125 9.011719 10.84375 9.011719 10.660156 9.011719 C 10.660156 8.824219 10.660156 8.636719 10.660156 8.445312 C 10.476562 8.445312 10.289062 8.445312 10.105469 8.445312 C 9.917969 8.445312 9.730469 8.445312 9.546875 8.445312 C 9.546875 8.257812 9.546875 8.070312 9.546875 7.878906 C 9.363281 7.878906 9.175781 7.878906 8.988281 7.878906 C 8.804688 7.878906 8.617188 7.878906 8.433594 7.878906 C 8.433594 7.691406 8.433594 7.503906 8.433594 7.316406 C 8.246094 7.316406 8.0625 7.316406 7.875 7.316406 C 7.691406 7.300781 7.507812 7.300781 7.320312 7.300781 Z M 7.320312 7.300781 " fill-opacity="1" fill-rule="evenodd"/><path fill="#9f8f92" d="M 5.09375 20.316406 L 6.207031 20.316406 L 6.207031 20.882812 L 5.09375 20.882812 L 5.09375 20.316406 L 4.535156 20.316406 L 4.535156 19.75 L 5.09375 19.75 Z M 5.09375 20.316406 " fill-opacity="1" fill-rule="evenodd"/></svg>