<svg xmlns="http://www.w3.org/2000/svg" xmlns:xlink="http://www.w3.org/1999/xlink" width="40" zoomAndPan="magnify" viewBox="0 0 30 37.92" height="40" preserveAspectRatio="xMidYMid meet" version="1.0"><defs><clipPath id="c416179803"><path d="M 1.527344 1.496094 L 28.472656 1.496094 L 28.472656 28.441406 L 1.527344 28.441406 Z M 1.527344 1.496094 " clip-rule="nonzero"/></clipPath></defs><g clip-path="url(#c416179803)"><path fill="#000000" d="M 12.917969 11.765625 L 15.328125 9.355469 L 11.632812 9.355469 L 11.632812 8.234375 L 15.558594 8.234375 C 16.488281 8.234375 17.242188 8.988281 17.242188 9.917969 L 17.242188 13.847656 L 16.121094 13.847656 L 16.121094 10.148438 L 13.710938 12.558594 C 13.40625 12.867188 13.089844 13.175781 12.773438 13.484375 C 10.003906 16.207031 7.140625 19.019531 7.140625 22.828125 L 6.019531 22.828125 C 6.019531 18.546875 9.050781 15.566406 11.988281 12.683594 C 12.300781 12.378906 12.613281 12.070312 12.917969 11.765625 Z M 16.398438 17.265625 L 14.4375 19.226562 L 12.480469 17.265625 L 11.683594 18.058594 L 13.644531 20.019531 L 11.683594 21.980469 L 12.480469 22.773438 L 14.4375 20.8125 L 16.398438 22.773438 L 17.191406 21.980469 L 15.230469 20.019531 L 17.191406 18.058594 Z M 4.894531 11.601562 C 4.894531 10.363281 5.902344 9.355469 7.140625 9.355469 C 8.378906 9.355469 9.386719 10.363281 9.386719 11.601562 C 9.386719 12.839844 8.378906 13.847656 7.140625 13.847656 C 5.902344 13.847656 4.894531 12.839844 4.894531 11.601562 Z M 6.019531 11.601562 C 6.019531 12.21875 6.523438 12.722656 7.140625 12.722656 C 7.761719 12.722656 8.265625 12.21875 8.265625 11.601562 C 8.265625 10.980469 7.761719 10.476562 7.140625 10.476562 C 6.523438 10.476562 6.019531 10.980469 6.019531 11.601562 Z M 18.367188 3.742188 L 20.613281 3.742188 L 20.613281 25.632812 C 20.613281 27.179688 19.355469 28.441406 17.804688 28.441406 L 4.335938 28.441406 C 2.785156 28.441406 1.527344 27.179688 1.527344 25.632812 L 1.527344 3.742188 L 3.773438 3.742188 L 3.773438 1.496094 L 4.894531 1.496094 L 4.894531 3.742188 L 7.140625 3.742188 L 7.140625 1.496094 L 8.265625 1.496094 L 8.265625 3.742188 L 10.507812 3.742188 L 10.507812 1.496094 L 11.632812 1.496094 L 11.632812 3.742188 L 13.878906 3.742188 L 13.878906 1.496094 L 15 1.496094 L 15 3.742188 L 17.246094 3.742188 L 17.246094 1.496094 L 18.367188 1.496094 Z M 19.492188 4.863281 L 2.652344 4.863281 L 2.652344 25.632812 C 2.652344 26.5625 3.40625 27.316406 4.335938 27.316406 L 17.804688 27.316406 C 18.734375 27.316406 19.492188 26.5625 19.492188 25.632812 Z M 28.472656 4.304688 L 28.472656 25.621094 L 25.664062 28.425781 L 22.859375 25.621094 L 22.859375 4.304688 C 22.859375 2.757812 24.117188 1.496094 25.664062 1.496094 C 27.214844 1.496094 28.472656 2.757812 28.472656 4.304688 Z M 27.347656 4.304688 C 27.347656 3.375 26.59375 2.621094 25.664062 2.621094 C 24.738281 2.621094 23.980469 3.375 23.980469 4.304688 L 23.980469 25.15625 L 25.664062 26.839844 L 27.347656 25.15625 Z M 27.347656 4.304688 " fill-opacity="1" fill-rule="nonzero"/></g></svg>