<svg xmlns="http://www.w3.org/2000/svg" xmlns:xlink="http://www.w3.org/1999/xlink" width="40" zoomAndPan="magnify" viewBox="0 0 30 37.92" height="40" preserveAspectRatio="xMidYMid meet" version="1.0"><defs><clipPath id="6cf33803d0"><path d="M 1.527344 1.496094 L 28.472656 1.496094 L 28.472656 28.441406 L 1.527344 28.441406 Z M 1.527344 1.496094 " clip-rule="nonzero"/></clipPath></defs><g clip-path="url(#6cf33803d0)"><path fill="#000000" d="M 27.550781 12.335938 C 26.976562 11.808594 26.300781 11.566406 25.519531 11.605469 C 24.742188 11.636719 24.09375 11.941406 23.570312 12.519531 L 19.378906 17.128906 C 19.289062 16.816406 19.15625 16.527344 18.972656 16.261719 C 18.789062 15.996094 18.570312 15.765625 18.3125 15.570312 C 18.054688 15.375 17.773438 15.226562 17.46875 15.125 C 17.160156 15.019531 16.847656 14.96875 16.523438 14.96875 L 4.335938 14.96875 C 3.964844 14.96875 3.605469 15.039062 3.261719 15.183594 C 2.917969 15.324219 2.613281 15.527344 2.351562 15.792969 C 2.089844 16.054688 1.886719 16.359375 1.742188 16.703125 C 1.601562 17.046875 1.527344 17.402344 1.527344 17.773438 L 1.527344 25.632812 C 1.527344 27.179688 2.785156 28.441406 4.335938 28.441406 L 16.9375 28.441406 L 27.757812 16.296875 C 28.003906 16.019531 28.1875 15.707031 28.308594 15.355469 C 28.433594 15.003906 28.484375 14.644531 28.464844 14.273438 C 28.445312 13.902344 28.355469 13.550781 28.199219 13.214844 C 28.039062 12.878906 27.824219 12.585938 27.550781 12.335938 Z M 26.917969 15.546875 L 16.433594 27.316406 L 4.335938 27.316406 C 3.40625 27.316406 2.652344 26.5625 2.652344 25.632812 L 2.652344 17.773438 C 2.652344 16.84375 3.40625 16.089844 4.335938 16.089844 L 16.523438 16.089844 C 17.539062 16.089844 18.367188 16.917969 18.367188 17.933594 C 18.367188 18.847656 17.6875 19.628906 16.792969 19.757812 L 10.4375 20.585938 L 10.582031 21.699219 L 16.945312 20.871094 C 17.507812 20.785156 18.007812 20.5625 18.441406 20.191406 C 18.875 19.824219 19.179688 19.367188 19.355469 18.824219 L 24.402344 13.277344 C 24.714844 12.929688 25.105469 12.746094 25.574219 12.726562 C 26.042969 12.703125 26.449219 12.847656 26.796875 13.164062 C 27.480469 13.789062 27.535156 14.859375 26.917969 15.546875 Z M 13.316406 8.234375 C 13.316406 6.996094 12.308594 5.988281 11.070312 5.988281 C 9.832031 5.988281 8.824219 6.996094 8.824219 8.234375 C 8.824219 9.472656 9.832031 10.476562 11.070312 10.476562 C 12.308594 10.476562 13.316406 9.472656 13.316406 8.234375 Z M 11.070312 9.355469 C 10.921875 9.355469 10.777344 9.328125 10.640625 9.269531 C 10.503906 9.210938 10.382812 9.132812 10.277344 9.027344 C 10.171875 8.921875 10.089844 8.800781 10.035156 8.664062 C 9.976562 8.523438 9.949219 8.382812 9.949219 8.234375 C 9.949219 8.082031 9.976562 7.941406 10.035156 7.804688 C 10.089844 7.664062 10.171875 7.542969 10.277344 7.4375 C 10.382812 7.332031 10.503906 7.253906 10.640625 7.195312 C 10.777344 7.136719 10.921875 7.109375 11.070312 7.109375 C 11.21875 7.109375 11.363281 7.136719 11.5 7.195312 C 11.636719 7.253906 11.757812 7.332031 11.863281 7.4375 C 11.96875 7.542969 12.050781 7.664062 12.109375 7.804688 C 12.164062 7.941406 12.195312 8.082031 12.195312 8.234375 C 12.195312 8.382812 12.164062 8.523438 12.109375 8.664062 C 12.050781 8.800781 11.96875 8.921875 11.863281 9.027344 C 11.757812 9.132812 11.636719 9.210938 11.5 9.269531 C 11.363281 9.328125 11.21875 9.355469 11.070312 9.355469 Z M 4.410156 10.195312 L 6.125 9.1875 C 6.050781 8.851562 6.019531 8.542969 6.019531 8.234375 C 6.019531 7.925781 6.050781 7.613281 6.125 7.277344 L 4.410156 6.269531 L 6.117188 3.367188 L 7.820312 4.367188 C 8.277344 3.988281 8.808594 3.6875 9.386719 3.484375 L 9.386719 1.496094 L 12.753906 1.496094 L 12.753906 3.484375 C 13.332031 3.6875 13.863281 3.984375 14.320312 4.367188 L 16.023438 3.367188 L 17.730469 6.269531 L 16.019531 7.277344 C 16.089844 7.613281 16.125 7.921875 16.125 8.230469 C 16.125 8.539062 16.089844 8.851562 16.019531 9.1875 L 17.730469 10.191406 L 16.023438 13.097656 L 14.320312 12.09375 C 13.863281 12.476562 13.332031 12.777344 12.753906 12.976562 L 12.753906 13.84375 L 11.632812 13.84375 L 11.632812 12.128906 L 12.054688 12.019531 C 12.746094 11.84375 13.34375 11.507812 13.855469 11.003906 L 14.160156 10.699219 L 15.625 11.558594 L 16.195312 10.59375 L 14.710938 9.722656 L 14.832031 9.304688 C 14.945312 8.898438 15 8.558594 15 8.234375 C 15 7.90625 14.945312 7.566406 14.832031 7.160156 L 14.710938 6.742188 L 16.195312 5.871094 L 15.625 4.90625 L 14.160156 5.765625 L 13.855469 5.460938 C 13.347656 4.957031 12.746094 4.621094 12.054688 4.445312 L 11.632812 4.335938 L 11.632812 2.621094 L 10.507812 2.621094 L 10.507812 4.335938 L 10.089844 4.445312 C 9.394531 4.621094 8.796875 4.957031 8.289062 5.457031 L 7.980469 5.765625 L 6.515625 4.902344 L 5.945312 5.871094 L 7.429688 6.742188 L 7.308594 7.160156 C 7.195312 7.5625 7.140625 7.90625 7.140625 8.230469 C 7.140625 8.554688 7.195312 8.898438 7.308594 9.300781 L 7.429688 9.71875 L 5.945312 10.589844 L 6.515625 11.558594 L 7.980469 10.695312 L 8.289062 11.003906 C 8.773438 11.488281 9.390625 11.835938 10.089844 12.015625 L 10.507812 12.125 L 10.507812 13.839844 L 9.386719 13.839844 L 9.386719 12.976562 C 8.8125 12.777344 8.289062 12.480469 7.820312 12.09375 L 6.117188 13.09375 L 4.410156 10.191406 Z M 4.410156 10.195312 " fill-opacity="1" fill-rule="nonzero"/></g></svg>