<svg xmlns="http://www.w3.org/2000/svg" xmlns:xlink="http://www.w3.org/1999/xlink" width="40" zoomAndPan="magnify" viewBox="0 0 30 37.92" height="40" preserveAspectRatio="xMidYMid meet" version="1.0"><defs><clipPath id="220760da40"><path d="M 2.277344 2.246094 L 27.722656 2.246094 L 27.722656 27.691406 L 2.277344 27.691406 Z M 2.277344 2.246094 " clip-rule="nonzero"/></clipPath></defs><g clip-path="url(#220760da40)"><path fill="#000000" d="M 14.25 11.089844 C 14.152344 10.992188 14.074219 10.878906 14.019531 10.746094 C 13.964844 10.617188 13.941406 10.480469 13.941406 10.339844 C 13.941406 10.199219 13.964844 10.066406 14.019531 9.9375 C 14.074219 9.804688 14.152344 9.691406 14.25 9.59375 C 14.351562 9.492188 14.464844 9.414062 14.59375 9.363281 C 14.722656 9.308594 14.859375 9.28125 15 9.28125 C 15.140625 9.28125 15.277344 9.308594 15.40625 9.363281 C 15.535156 9.414062 15.648438 9.492188 15.75 9.59375 C 15.851562 9.691406 15.929688 9.804688 15.988281 9.9375 C 16.042969 10.066406 16.070312 10.203125 16.074219 10.34375 C 16.074219 10.488281 16.046875 10.625 15.996094 10.757812 C 15.941406 10.886719 15.863281 11.003906 15.761719 11.105469 C 15.664062 11.203125 15.546875 11.28125 15.414062 11.335938 C 15.28125 11.390625 15.144531 11.414062 15.003906 11.414062 C 14.863281 11.414062 14.726562 11.386719 14.59375 11.328125 C 14.464844 11.273438 14.347656 11.191406 14.25 11.089844 Z M 11.492188 10.851562 C 11.71875 8.71875 12.359375 6.308594 13.496094 3.285156 C 13.734375 2.65625 14.324219 2.246094 15 2.246094 C 15.675781 2.246094 16.265625 2.652344 16.503906 3.285156 C 17.625 6.257812 18.261719 8.667969 18.507812 10.851562 C 19.6875 12.089844 20.339844 13.585938 20.300781 14.980469 C 20.300781 15.421875 20.242188 15.886719 19.902344 16.207031 C 19.785156 16.324219 19.652344 16.414062 19.5 16.476562 C 19.347656 16.542969 19.1875 16.578125 19.023438 16.582031 C 18.859375 16.585938 18.699219 16.558594 18.546875 16.5 C 18.390625 16.441406 18.253906 16.355469 18.132812 16.246094 L 16.734375 14.96875 L 15.53125 14.96875 L 15.53125 16.558594 C 15.53125 16.703125 15.476562 16.828125 15.375 16.933594 C 15.269531 17.035156 15.144531 17.085938 15 17.085938 C 14.855469 17.085938 14.730469 17.035156 14.625 16.933594 C 14.523438 16.828125 14.46875 16.703125 14.46875 16.558594 L 14.46875 14.96875 L 13.269531 14.96875 L 11.875 16.269531 C 11.628906 16.5 11.335938 16.617188 11 16.617188 C 10.382812 16.636719 9.777344 16.105469 9.722656 15.484375 C 9.511719 13.640625 10.476562 11.910156 11.492188 10.851562 Z M 10.773438 15.359375 C 10.792969 15.535156 11.023438 15.621094 11.152344 15.496094 L 12.699219 14.050781 C 12.800781 13.957031 12.921875 13.90625 13.0625 13.90625 L 16.9375 13.90625 C 17.074219 13.910156 17.191406 13.953125 17.292969 14.046875 L 18.84375 15.460938 C 18.976562 15.585938 19.203125 15.496094 19.214844 15.324219 C 19.230469 15.199219 19.238281 15.074219 19.238281 14.953125 C 19.273438 13.796875 18.683594 12.523438 17.625 11.464844 C 17.535156 11.375 17.484375 11.269531 17.46875 11.144531 C 17.25 9.003906 16.628906 6.625 15.511719 3.65625 C 15.421875 3.417969 15.253906 3.300781 14.996094 3.304688 C 14.742188 3.300781 14.574219 3.417969 14.488281 3.65625 C 13.351562 6.679688 12.726562 9.058594 12.527344 11.140625 C 12.515625 11.269531 12.464844 11.378906 12.371094 11.46875 C 11.484375 12.339844 10.597656 13.816406 10.773438 15.359375 Z M 27.722656 25.039062 C 27.722656 26.503906 26.535156 27.691406 25.070312 27.691406 L 4.925781 27.691406 C 4.574219 27.691406 4.238281 27.625 3.914062 27.488281 C 3.589844 27.355469 3.300781 27.164062 3.054688 26.914062 C 2.804688 26.664062 2.613281 26.378906 2.480469 26.054688 C 2.34375 25.730469 2.277344 25.390625 2.277344 25.039062 C 2.277344 23.761719 3.1875 22.691406 4.398438 22.445312 L 4.398438 13.378906 C 4.398438 10.746094 6.539062 8.605469 9.167969 8.605469 C 9.316406 8.605469 9.441406 8.660156 9.542969 8.761719 C 9.648438 8.867188 9.699219 8.992188 9.699219 9.136719 C 9.699219 9.285156 9.648438 9.410156 9.542969 9.511719 C 9.441406 9.617188 9.316406 9.667969 9.167969 9.667969 C 7.121094 9.667969 5.457031 11.332031 5.457031 13.378906 L 5.457031 22.390625 L 11.289062 22.390625 C 11.429688 22.390625 11.566406 22.445312 11.664062 22.546875 L 12.570312 23.449219 L 17.433594 23.449219 L 18.335938 22.546875 C 18.441406 22.441406 18.566406 22.390625 18.714844 22.390625 L 24.542969 22.390625 L 24.542969 13.378906 C 24.542969 11.332031 22.878906 9.667969 20.832031 9.667969 C 20.6875 9.667969 20.5625 9.617188 20.457031 9.511719 C 20.355469 9.410156 20.304688 9.285156 20.304688 9.136719 C 20.304688 8.992188 20.355469 8.867188 20.457031 8.761719 C 20.5625 8.660156 20.6875 8.605469 20.832031 8.605469 C 23.464844 8.605469 25.605469 10.746094 25.605469 13.378906 L 25.605469 22.445312 C 26.8125 22.691406 27.726562 23.761719 27.726562 25.039062 Z M 26.660156 25.039062 C 26.660156 24.164062 25.949219 23.449219 25.070312 23.449219 L 18.929688 23.449219 L 18.023438 24.355469 C 17.921875 24.460938 17.796875 24.511719 17.648438 24.511719 L 12.347656 24.511719 C 12.199219 24.511719 12.074219 24.457031 11.972656 24.355469 L 11.066406 23.449219 L 4.925781 23.449219 C 4.050781 23.449219 3.335938 24.164062 3.335938 25.039062 C 3.335938 25.917969 4.050781 26.632812 4.925781 26.632812 L 25.074219 26.632812 C 25.949219 26.632812 26.664062 25.917969 26.664062 25.039062 Z M 26.660156 25.039062 " fill-opacity="1" fill-rule="nonzero"/></g></svg>