<svg xmlns="http://www.w3.org/2000/svg" xmlns:xlink="http://www.w3.org/1999/xlink" width="40" zoomAndPan="magnify" viewBox="0 0 30 37.92" height="40" preserveAspectRatio="xMidYMid meet" version="1.0"><defs><clipPath id="32d4a9c621"><path d="M 2.5 2.46875 L 27.195312 2.46875 L 27.195312 27.164062 L 2.5 27.164062 Z M 2.5 2.46875 " clip-rule="nonzero"/></clipPath></defs><g clip-path="url(#32d4a9c621)"><path fill="#000000" d="M 27.195312 10.183594 L 27.195312 22.535156 C 27.195312 25.085938 25.121094 27.164062 22.566406 27.164062 L 7.128906 27.164062 C 4.578125 27.164062 2.5 25.085938 2.5 22.535156 L 2.5 9.15625 C 2.5 6.601562 4.578125 4.527344 7.128906 4.527344 L 17.421875 4.527344 C 17.703125 4.527344 17.933594 4.757812 17.933594 5.039062 C 17.933594 5.324219 17.703125 5.554688 17.421875 5.554688 L 7.128906 5.554688 C 5.144531 5.554688 3.527344 7.171875 3.527344 9.15625 L 3.527344 11.730469 L 10.21875 11.730469 C 10.5 11.730469 10.730469 11.960938 10.730469 12.242188 C 10.730469 12.527344 10.5 12.757812 10.21875 12.757812 L 3.527344 12.757812 L 3.527344 22.535156 C 3.527344 24.519531 5.144531 26.136719 7.128906 26.136719 L 22.566406 26.136719 C 24.550781 26.136719 26.167969 24.519531 26.167969 22.535156 L 26.167969 12.757812 L 24.625 12.757812 C 24.339844 12.757812 24.109375 12.527344 24.109375 12.242188 C 24.109375 11.960938 24.339844 11.730469 24.625 11.730469 L 26.167969 11.730469 L 26.167969 10.183594 C 26.167969 9.902344 26.398438 9.671875 26.683594 9.671875 C 26.964844 9.671875 27.195312 9.902344 27.195312 10.183594 Z M 5.585938 8.640625 C 5.585938 9.210938 6.046875 9.671875 6.617188 9.671875 C 7.183594 9.671875 7.644531 9.210938 7.644531 8.640625 C 7.644531 8.074219 7.183594 7.613281 6.617188 7.613281 C 6.046875 7.613281 5.585938 8.074219 5.585938 8.640625 Z M 8.160156 22.019531 C 7.875 22.019531 7.644531 22.25 7.644531 22.535156 C 7.644531 22.820312 7.875 23.050781 8.160156 23.050781 L 21.535156 23.050781 C 21.820312 23.050781 22.050781 22.820312 22.050781 22.535156 C 22.050781 22.25 21.820312 22.019531 21.535156 22.019531 Z M 8.671875 8.640625 C 8.671875 9.210938 9.132812 9.671875 9.703125 9.671875 C 10.269531 9.671875 10.730469 9.210938 10.730469 8.640625 C 10.730469 8.074219 10.269531 7.613281 9.703125 7.613281 C 9.132812 7.613281 8.671875 8.074219 8.671875 8.640625 Z M 13.820312 8.640625 C 13.820312 8.074219 13.359375 7.613281 12.789062 7.613281 C 12.222656 7.613281 11.761719 8.074219 11.761719 8.640625 C 11.761719 9.210938 12.222656 9.671875 12.789062 9.671875 C 13.359375 9.671875 13.820312 9.210938 13.820312 8.640625 Z M 14.078125 12.777344 C 21.410156 4.203125 22.105469 3.394531 22.144531 3.351562 C 23.316406 2.179688 25.1875 2.179688 26.335938 3.328125 C 27.484375 4.480469 27.476562 6.355469 26.324219 7.511719 L 17.914062 16.582031 C 17.914062 16.582031 17.910156 16.585938 17.90625 16.589844 C 17.894531 16.75 17.898438 16.910156 17.867188 17.074219 C 17.542969 18.746094 16.003906 19.960938 14.210938 19.960938 L 10.148438 19.960938 C 9.675781 19.960938 9.246094 19.746094 8.964844 19.367188 C 8.683594 18.992188 8.601562 18.519531 8.734375 18.070312 C 9.191406 16.554688 10.621094 13.070312 14.078125 12.78125 C 14.078125 12.78125 14.078125 12.777344 14.082031 12.777344 Z M 15.316406 12.914062 C 16.015625 13.113281 16.644531 13.5 17.113281 14.070312 C 17.402344 14.425781 17.605469 14.828125 17.742188 15.253906 L 19.90625 12.921875 C 19.507812 11.746094 18.5 10.929688 17.195312 10.71875 C 16.628906 11.378906 16 12.117188 15.316406 12.914062 Z M 16.320312 14.726562 C 15.828125 14.128906 15.105469 13.789062 14.332031 13.789062 C 11.382812 13.90625 10.125 17.027344 9.722656 18.367188 C 9.632812 18.640625 9.859375 18.941406 10.148438 18.933594 L 14.214844 18.933594 C 15.515625 18.933594 16.625 18.066406 16.855469 16.878906 C 17.007812 16.105469 16.8125 15.320312 16.320312 14.726562 Z M 17.949219 9.832031 C 19.171875 10.191406 20.140625 10.992188 20.675781 12.09375 L 25.582031 6.796875 C 26.351562 6.027344 26.355469 4.804688 25.609375 4.054688 C 24.863281 3.308594 23.644531 3.308594 22.894531 4.054688 C 22.886719 4.0625 22.496094 4.519531 17.949219 9.832031 Z M 17.949219 9.832031 " fill-opacity="1" fill-rule="nonzero"/></g></svg>