<svg xmlns="http://www.w3.org/2000/svg" xmlns:xlink="http://www.w3.org/1999/xlink" width="150" zoomAndPan="magnify" viewBox="0 0 112.5 37.5" height="50" preserveAspectRatio="xMidYMid meet" version="1.0"><defs><g/><clipPath id="be251f91f8"><path d="M 0.175781 6 L 17 6 L 17 17 L 0.175781 17 Z M 0.175781 6 " clip-rule="nonzero"/></clipPath><clipPath id="04bd30d62b"><rect x="0" width="40" y="0" height="24"/></clipPath><clipPath id="687c7c29f8"><path d="M 0.152344 6 L 9 6 L 9 22 L 0.152344 22 Z M 0.152344 6 " clip-rule="nonzero"/></clipPath><clipPath id="3ce1c4aa78"><rect x="0" width="41" y="0" height="30"/></clipPath><clipPath id="3501c49520"><path d="M 0.46875 1 L 5 1 L 5 5 L 0.46875 5 Z M 0.46875 1 " clip-rule="nonzero"/></clipPath><clipPath id="b90dda5c19"><rect x="0" width="30" y="0" height="6"/></clipPath></defs><g transform="matrix(1, 0, 0, 1, 15, 6)"><g clip-path="url(#04bd30d62b)"><g clip-path="url(#be251f91f8)"><g fill="#ffffff" fill-opacity="1"><g transform="translate(0.237335, 16.462254)"><g><path d="M 3.40625 -5.03125 C 4.226562 -6.40625 5.144531 -7.617188 6.15625 -8.671875 C 7.164062 -9.722656 8.09375 -10.25 8.9375 -10.25 C 9.382812 -10.25 9.707031 -10.101562 9.90625 -9.8125 C 10.101562 -9.519531 10.203125 -9.179688 10.203125 -8.796875 C 10.203125 -8.210938 10.054688 -7.394531 9.765625 -6.34375 L 9.171875 -4.375 L 9.21875 -4.328125 C 10.175781 -6.046875 11.175781 -7.460938 12.21875 -8.578125 C 13.269531 -9.691406 14.253906 -10.25 15.171875 -10.25 C 15.453125 -10.25 15.722656 -10.132812 15.984375 -9.90625 C 16.242188 -9.675781 16.375 -9.289062 16.375 -8.75 C 16.375 -8.582031 16.351562 -8.367188 16.3125 -8.109375 C 16.269531 -7.859375 16.222656 -7.640625 16.171875 -7.453125 L 14.734375 -2.421875 C 14.710938 -2.328125 14.660156 -2.144531 14.578125 -1.875 C 14.503906 -1.613281 14.46875 -1.414062 14.46875 -1.28125 C 14.46875 -1.007812 14.550781 -0.875 14.71875 -0.875 C 14.914062 -0.875 15.179688 -1.050781 15.515625 -1.40625 C 15.847656 -1.769531 16.128906 -2.109375 16.359375 -2.421875 L 16.65625 -2.15625 C 16.226562 -1.507812 15.710938 -0.941406 15.109375 -0.453125 C 14.503906 0.0234375 13.976562 0.265625 13.53125 0.265625 C 13.363281 0.265625 13.191406 0.191406 13.015625 0.046875 C 12.835938 -0.0859375 12.75 -0.328125 12.75 -0.671875 C 12.75 -1.109375 12.878906 -1.804688 13.140625 -2.765625 L 14.34375 -6.9375 C 14.519531 -7.53125 14.609375 -8 14.609375 -8.34375 C 14.609375 -8.519531 14.554688 -8.671875 14.453125 -8.796875 C 14.359375 -8.929688 14.238281 -9 14.09375 -9 C 13.613281 -9 13.097656 -8.734375 12.546875 -8.203125 C 12.003906 -7.679688 11.421875 -6.972656 10.796875 -6.078125 C 10.222656 -5.273438 9.734375 -4.5 9.328125 -3.75 C 8.929688 -3 8.671875 -2.414062 8.546875 -2 C 8.171875 -0.78125 7.96875 -0.113281 7.9375 0 L 6.265625 0 L 8.078125 -6.421875 C 8.148438 -6.660156 8.234375 -6.976562 8.328125 -7.375 C 8.429688 -7.769531 8.484375 -8.09375 8.484375 -8.34375 C 8.484375 -8.539062 8.425781 -8.691406 8.3125 -8.796875 C 8.195312 -8.910156 8.066406 -8.96875 7.921875 -8.96875 C 7.472656 -8.96875 6.929688 -8.691406 6.296875 -8.140625 C 5.671875 -7.585938 5.046875 -6.84375 4.421875 -5.90625 C 3.941406 -5.195312 3.554688 -4.5625 3.265625 -4 C 2.984375 -3.4375 2.703125 -2.691406 2.421875 -1.765625 C 2.109375 -0.703125 1.941406 -0.113281 1.921875 0 L 0.203125 0 L 2.40625 -7.703125 C 2.539062 -8.148438 2.609375 -8.476562 2.609375 -8.6875 C 2.609375 -9.164062 2.359375 -9.40625 1.859375 -9.40625 C 1.554688 -9.40625 1.3125 -9.375 1.125 -9.3125 L 1.125 -9.71875 L 4.46875 -10.25 L 4.875 -10.25 L 3.359375 -5.078125 Z M 3.40625 -5.03125 "/></g></g></g></g><g fill="#ffffff" fill-opacity="1"><g transform="translate(15.964377, 16.462254)"><g><path d="M 5.34375 -14.734375 C 5.65625 -14.734375 5.921875 -14.617188 6.140625 -14.390625 C 6.367188 -14.171875 6.484375 -13.914062 6.484375 -13.625 C 6.484375 -13.300781 6.367188 -13.023438 6.140625 -12.796875 C 5.921875 -12.578125 5.65625 -12.46875 5.34375 -12.46875 C 5.039062 -12.46875 4.773438 -12.578125 4.546875 -12.796875 C 4.328125 -13.023438 4.21875 -13.300781 4.21875 -13.625 C 4.21875 -13.914062 4.328125 -14.171875 4.546875 -14.390625 C 4.773438 -14.617188 5.039062 -14.734375 5.34375 -14.734375 Z M 3.140625 -2 C 3.023438 -1.601562 2.96875 -1.332031 2.96875 -1.1875 C 2.96875 -0.945312 3.09375 -0.828125 3.34375 -0.828125 C 3.519531 -0.828125 3.769531 -0.960938 4.09375 -1.234375 C 4.414062 -1.515625 4.75 -1.925781 5.09375 -2.46875 L 5.453125 -2.25 C 4.960938 -1.476562 4.410156 -0.863281 3.796875 -0.40625 C 3.179688 0.0390625 2.617188 0.265625 2.109375 0.265625 C 1.804688 0.265625 1.578125 0.171875 1.421875 -0.015625 C 1.265625 -0.210938 1.1875 -0.476562 1.1875 -0.8125 C 1.1875 -1.050781 1.234375 -1.328125 1.328125 -1.640625 L 3.125 -7.8125 C 3.226562 -8.1875 3.28125 -8.445312 3.28125 -8.59375 C 3.28125 -8.789062 3.210938 -8.960938 3.078125 -9.109375 C 2.941406 -9.253906 2.738281 -9.328125 2.46875 -9.328125 C 2.363281 -9.328125 2.078125 -9.289062 1.609375 -9.21875 L 1.734375 -9.609375 L 5.140625 -10.25 L 5.515625 -10.25 Z M 3.140625 -2 "/></g></g></g><g fill="#ffffff" fill-opacity="1"><g transform="translate(20.473842, 16.462254)"><g><path d="M 6.5 -10.25 C 7.21875 -10.25 7.882812 -10.035156 8.5 -9.609375 L 11.46875 -9.609375 L 11.109375 -8.375 L 9.3125 -8.375 C 9.445312 -8.007812 9.515625 -7.648438 9.515625 -7.296875 C 9.515625 -6.648438 9.320312 -6.03125 8.9375 -5.4375 C 8.5625 -4.851562 8.03125 -4.375 7.34375 -4 C 6.664062 -3.625 5.898438 -3.421875 5.046875 -3.390625 C 4.640625 -3.253906 4.269531 -3.078125 3.9375 -2.859375 C 3.601562 -2.640625 3.4375 -2.425781 3.4375 -2.21875 C 3.4375 -2.007812 3.566406 -1.847656 3.828125 -1.734375 C 4.097656 -1.628906 4.640625 -1.46875 5.453125 -1.25 C 5.554688 -1.238281 5.710938 -1.203125 5.921875 -1.140625 C 7.929688 -0.648438 8.9375 0.171875 8.9375 1.328125 C 8.9375 1.941406 8.722656 2.492188 8.296875 2.984375 C 7.867188 3.472656 7.28125 3.863281 6.53125 4.15625 C 5.78125 4.445312 4.941406 4.59375 4.015625 4.59375 C 2.835938 4.59375 1.835938 4.378906 1.015625 3.953125 C 0.203125 3.535156 -0.203125 2.96875 -0.203125 2.25 C -0.203125 2.03125 -0.15625 1.816406 -0.0625 1.609375 C 0.0195312 1.398438 0.253906 1.113281 0.640625 0.75 C 1.035156 0.382812 1.640625 -0.0507812 2.453125 -0.5625 C 2.085938 -0.800781 1.90625 -1.097656 1.90625 -1.453125 C 1.90625 -1.859375 2.078125 -2.203125 2.421875 -2.484375 C 2.765625 -2.773438 3.316406 -3.128906 4.078125 -3.546875 C 3.359375 -3.765625 2.789062 -4.097656 2.375 -4.546875 C 1.96875 -5.003906 1.765625 -5.566406 1.765625 -6.234375 C 1.765625 -6.984375 1.992188 -7.664062 2.453125 -8.28125 C 2.921875 -8.894531 3.519531 -9.375 4.25 -9.71875 C 4.988281 -10.070312 5.738281 -10.25 6.5 -10.25 Z M 3.65625 -5.65625 C 3.65625 -5.28125 3.773438 -4.894531 4.015625 -4.5 C 4.265625 -4.113281 4.640625 -3.921875 5.140625 -3.921875 C 5.648438 -3.921875 6.09375 -4.148438 6.46875 -4.609375 C 6.851562 -5.078125 7.144531 -5.644531 7.34375 -6.3125 C 7.550781 -6.976562 7.65625 -7.597656 7.65625 -8.171875 C 7.65625 -8.617188 7.546875 -8.984375 7.328125 -9.265625 C 7.109375 -9.546875 6.78125 -9.6875 6.34375 -9.6875 C 5.738281 -9.6875 5.234375 -9.441406 4.828125 -8.953125 C 4.421875 -8.460938 4.125 -7.894531 3.9375 -7.25 C 3.75 -6.601562 3.65625 -6.070312 3.65625 -5.65625 Z M 1.125 2.09375 C 1.125 2.6875 1.429688 3.160156 2.046875 3.515625 C 2.660156 3.878906 3.367188 4.0625 4.171875 4.0625 C 4.648438 4.0625 5.148438 3.988281 5.671875 3.84375 C 6.203125 3.707031 6.648438 3.484375 7.015625 3.171875 C 7.390625 2.867188 7.578125 2.484375 7.578125 2.015625 C 7.578125 1.660156 7.429688 1.359375 7.140625 1.109375 C 6.847656 0.859375 6.5 0.660156 6.09375 0.515625 C 5.695312 0.378906 5.144531 0.222656 4.4375 0.046875 C 3.695312 -0.128906 3.175781 -0.28125 2.875 -0.40625 C 2.332031 -0.0195312 1.90625 0.359375 1.59375 0.734375 C 1.28125 1.109375 1.125 1.5625 1.125 2.09375 Z M 1.125 2.09375 "/></g></g></g><g fill="#ffffff" fill-opacity="1"><g transform="translate(30.120959, 16.462254)"><g><path d="M 5.296875 -10.25 C 5.835938 -10.25 6.347656 -10.125 6.828125 -9.875 C 7.085938 -9.75 7.269531 -9.6875 7.375 -9.6875 C 7.664062 -9.6875 7.898438 -9.875 8.078125 -10.25 L 8.484375 -10.25 L 7.875 -6.84375 L 7.46875 -6.84375 C 7.46875 -7.8125 7.273438 -8.539062 6.890625 -9.03125 C 6.515625 -9.53125 6.050781 -9.78125 5.5 -9.78125 C 5.09375 -9.78125 4.757812 -9.648438 4.5 -9.390625 C 4.238281 -9.140625 4.109375 -8.859375 4.109375 -8.546875 C 4.109375 -8.191406 4.210938 -7.828125 4.421875 -7.453125 C 4.628906 -7.085938 4.957031 -6.609375 5.40625 -6.015625 C 5.914062 -5.359375 6.304688 -4.78125 6.578125 -4.28125 C 6.847656 -3.789062 6.984375 -3.273438 6.984375 -2.734375 C 6.984375 -2.222656 6.84375 -1.738281 6.5625 -1.28125 C 6.28125 -0.832031 5.882812 -0.460938 5.375 -0.171875 C 4.875 0.117188 4.285156 0.265625 3.609375 0.265625 C 3.222656 0.265625 2.753906 0.171875 2.203125 -0.015625 C 1.804688 -0.140625 1.550781 -0.203125 1.4375 -0.203125 C 1.15625 -0.203125 0.898438 -0.046875 0.671875 0.265625 L 0.203125 0.265625 L 0.859375 -3.328125 L 1.296875 -3.328125 C 1.359375 -2.421875 1.539062 -1.671875 1.84375 -1.078125 C 2.15625 -0.492188 2.726562 -0.203125 3.5625 -0.203125 C 4.144531 -0.203125 4.601562 -0.398438 4.9375 -0.796875 C 5.269531 -1.191406 5.4375 -1.609375 5.4375 -2.046875 C 5.4375 -2.359375 5.34375 -2.679688 5.15625 -3.015625 C 4.976562 -3.347656 4.773438 -3.679688 4.546875 -4.015625 C 4.328125 -4.347656 4.179688 -4.566406 4.109375 -4.671875 L 3.765625 -5.15625 C 3.378906 -5.695312 3.09375 -6.160156 2.90625 -6.546875 C 2.71875 -6.941406 2.625 -7.363281 2.625 -7.8125 C 2.625 -8.34375 2.765625 -8.789062 3.046875 -9.15625 C 3.335938 -9.53125 3.691406 -9.804688 4.109375 -9.984375 C 4.523438 -10.160156 4.921875 -10.25 5.296875 -10.25 Z M 5.296875 -10.25 "/></g></g></g></g></g><g transform="matrix(1, 0, 0, 1, 56, 2)"><g clip-path="url(#3ce1c4aa78)"><g clip-path="url(#687c7c29f8)"><g fill="#ffffff" fill-opacity="1"><g transform="translate(0.29202, 21.326292)"><g><path d="M 2.15625 0 L 2.15625 -8.140625 L 0.1875 -8.140625 L 0.1875 -10.15625 L 2.90625 -10.15625 L 2.15625 -9.4375 L 2.15625 -10.09375 C 2.15625 -11.53125 2.539062 -12.613281 3.3125 -13.34375 C 4.09375 -14.070312 5.28125 -14.476562 6.875 -14.5625 L 8 -14.625 L 8.1875 -12.578125 L 6.984375 -12.515625 C 6.492188 -12.492188 6.085938 -12.410156 5.765625 -12.265625 C 5.441406 -12.117188 5.203125 -11.90625 5.046875 -11.625 C 4.890625 -11.34375 4.8125 -10.976562 4.8125 -10.53125 L 4.8125 -9.890625 L 4.46875 -10.15625 L 7.6875 -10.15625 L 7.6875 -8.140625 L 4.8125 -8.140625 L 4.8125 0 Z M 2.15625 0 "/></g></g></g></g><g fill="#ffffff" fill-opacity="1"><g transform="translate(6.642398, 21.326292)"><g><path d="M 5 0.203125 C 3.820312 0.203125 2.9375 -0.113281 2.34375 -0.75 C 1.75 -1.382812 1.453125 -2.3125 1.453125 -3.53125 L 1.453125 -14.5 L 4.140625 -14.5 L 4.140625 -3.703125 C 4.140625 -3.316406 4.191406 -2.992188 4.296875 -2.734375 C 4.410156 -2.472656 4.578125 -2.273438 4.796875 -2.140625 C 5.015625 -2.003906 5.28125 -1.9375 5.59375 -1.9375 C 5.769531 -1.9375 5.941406 -1.945312 6.109375 -1.96875 C 6.273438 -1.988281 6.4375 -2.019531 6.59375 -2.0625 L 6.640625 -0.015625 C 6.367188 0.046875 6.101562 0.0976562 5.84375 0.140625 C 5.582031 0.179688 5.300781 0.203125 5 0.203125 Z M 5 0.203125 "/></g></g></g><g fill="#ffffff" fill-opacity="1"><g transform="translate(11.759453, 21.326292)"><g><path d="M 6.171875 0.203125 C 5.097656 0.203125 4.164062 -0.0078125 3.375 -0.4375 C 2.59375 -0.875 1.984375 -1.488281 1.546875 -2.28125 C 1.117188 -3.070312 0.90625 -4.003906 0.90625 -5.078125 C 0.90625 -6.160156 1.117188 -7.09375 1.546875 -7.875 C 1.984375 -8.664062 2.59375 -9.273438 3.375 -9.703125 C 4.164062 -10.140625 5.097656 -10.359375 6.171875 -10.359375 C 7.253906 -10.359375 8.1875 -10.140625 8.96875 -9.703125 C 9.75 -9.273438 10.351562 -8.664062 10.78125 -7.875 C 11.21875 -7.082031 11.4375 -6.148438 11.4375 -5.078125 C 11.4375 -4.003906 11.21875 -3.070312 10.78125 -2.28125 C 10.351562 -1.488281 9.75 -0.875 8.96875 -0.4375 C 8.1875 -0.0078125 7.253906 0.203125 6.171875 0.203125 Z M 6.171875 -1.890625 C 6.972656 -1.890625 7.609375 -2.164062 8.078125 -2.71875 C 8.546875 -3.28125 8.78125 -4.070312 8.78125 -5.09375 C 8.78125 -6.125 8.546875 -6.910156 8.078125 -7.453125 C 7.609375 -7.992188 6.972656 -8.265625 6.171875 -8.265625 C 5.367188 -8.265625 4.734375 -7.992188 4.265625 -7.453125 C 3.796875 -6.910156 3.5625 -6.125 3.5625 -5.09375 C 3.5625 -4.070312 3.796875 -3.28125 4.265625 -2.71875 C 4.734375 -2.164062 5.367188 -1.890625 6.171875 -1.890625 Z M 6.171875 -1.890625 "/></g></g></g><g fill="#ffffff" fill-opacity="1"><g transform="translate(22.241122, 21.326292)"><g><path d="M 4.03125 0 L 0.203125 -10.15625 L 2.90625 -10.15625 L 5.46875 -2.625 L 5.1875 -2.625 L 7.9375 -10.15625 L 9.875 -10.15625 L 12.578125 -2.625 L 12.34375 -2.625 L 14.90625 -10.15625 L 17.484375 -10.15625 L 13.6875 0 L 11.390625 0 L 8.46875 -7.765625 L 9.21875 -7.765625 L 6.3125 0 Z M 4.03125 0 "/></g></g></g></g></g><g transform="matrix(1, 0, 0, 1, 41, 28)"><g clip-path="url(#b90dda5c19)"><g clip-path="url(#3501c49520)"><g fill="#ffffff" fill-opacity="1"><g transform="translate(0.646235, 4.277642)"><g><path d="M 1 0 L 0.109375 -2.625 L 0.625 -2.625 L 1.296875 -0.546875 L 1.203125 -0.546875 L 1.921875 -2.625 L 2.296875 -2.625 L 3 -0.546875 L 2.921875 -0.546875 L 3.59375 -2.625 L 4.078125 -2.625 L 3.1875 0 L 2.75 0 L 2.078125 -1.984375 L 2.125 -1.984375 L 1.421875 0 Z M 1 0 "/></g></g></g></g><g fill="#ffffff" fill-opacity="1"><g transform="translate(5.210136, 4.277642)"><g><path d="M 0.3125 0 L 0.3125 -2.625 L 2.09375 -2.625 L 2.09375 -2.234375 L 0.796875 -2.234375 L 0.796875 -1.53125 L 2.015625 -1.53125 L 2.015625 -1.140625 L 0.796875 -1.140625 L 0.796875 -0.40625 L 2.09375 -0.40625 L 2.09375 0 Z M 0.3125 0 "/></g></g></g><g fill="#ffffff" fill-opacity="1"><g transform="translate(7.912653, 4.277642)"><g><path d="M 0.3125 0 L 0.3125 -2.625 L 1.484375 -2.625 C 1.765625 -2.625 1.984375 -2.566406 2.140625 -2.453125 C 2.296875 -2.335938 2.375 -2.171875 2.375 -1.953125 C 2.375 -1.785156 2.328125 -1.648438 2.234375 -1.546875 C 2.148438 -1.441406 2.039062 -1.375 1.90625 -1.34375 L 1.90625 -1.375 C 2.007812 -1.351562 2.097656 -1.316406 2.171875 -1.265625 C 2.253906 -1.210938 2.316406 -1.140625 2.359375 -1.046875 C 2.410156 -0.960938 2.4375 -0.859375 2.4375 -0.734375 C 2.4375 -0.578125 2.398438 -0.441406 2.328125 -0.328125 C 2.253906 -0.222656 2.148438 -0.140625 2.015625 -0.078125 C 1.878906 -0.0234375 1.71875 0 1.53125 0 Z M 0.796875 -0.390625 L 1.484375 -0.390625 C 1.546875 -0.390625 1.601562 -0.394531 1.65625 -0.40625 C 1.707031 -0.414062 1.75 -0.425781 1.78125 -0.4375 C 1.820312 -0.457031 1.851562 -0.484375 1.875 -0.515625 C 1.90625 -0.546875 1.925781 -0.582031 1.9375 -0.625 C 1.945312 -0.664062 1.953125 -0.710938 1.953125 -0.765625 C 1.953125 -0.816406 1.945312 -0.863281 1.9375 -0.90625 C 1.925781 -0.945312 1.90625 -0.976562 1.875 -1 C 1.851562 -1.03125 1.820312 -1.054688 1.78125 -1.078125 C 1.75 -1.097656 1.707031 -1.113281 1.65625 -1.125 C 1.601562 -1.132812 1.546875 -1.140625 1.484375 -1.140625 L 0.796875 -1.140625 Z M 0.796875 -1.53125 L 1.421875 -1.53125 C 1.578125 -1.53125 1.691406 -1.554688 1.765625 -1.609375 C 1.847656 -1.671875 1.890625 -1.765625 1.890625 -1.890625 C 1.890625 -2.003906 1.847656 -2.09375 1.765625 -2.15625 C 1.691406 -2.21875 1.578125 -2.25 1.421875 -2.25 L 0.796875 -2.25 Z M 0.796875 -1.53125 "/></g></g></g><g fill="#ffffff" fill-opacity="1"><g transform="translate(10.947829, 4.277642)"><g/></g></g><g fill="#ffffff" fill-opacity="1"><g transform="translate(12.375784, 4.277642)"><g><path d="M 0.3125 0 L 0.3125 -2.625 L 1.3125 -2.625 C 1.601562 -2.625 1.851562 -2.570312 2.0625 -2.46875 C 2.269531 -2.375 2.425781 -2.226562 2.53125 -2.03125 C 2.632812 -1.832031 2.6875 -1.59375 2.6875 -1.3125 C 2.6875 -1.03125 2.632812 -0.789062 2.53125 -0.59375 C 2.425781 -0.40625 2.269531 -0.257812 2.0625 -0.15625 C 1.851562 -0.0507812 1.601562 0 1.3125 0 Z M 0.8125 -0.40625 L 1.28125 -0.40625 C 1.582031 -0.40625 1.804688 -0.476562 1.953125 -0.625 C 2.097656 -0.78125 2.171875 -1.007812 2.171875 -1.3125 C 2.171875 -1.625 2.097656 -1.851562 1.953125 -2 C 1.804688 -2.144531 1.582031 -2.21875 1.28125 -2.21875 L 0.8125 -2.21875 Z M 0.8125 -0.40625 "/></g></g></g><g fill="#ffffff" fill-opacity="1"><g transform="translate(15.665125, 4.277642)"><g><path d="M 0.3125 0 L 0.3125 -2.625 L 2.09375 -2.625 L 2.09375 -2.234375 L 0.796875 -2.234375 L 0.796875 -1.53125 L 2.015625 -1.53125 L 2.015625 -1.140625 L 0.796875 -1.140625 L 0.796875 -0.40625 L 2.09375 -0.40625 L 2.09375 0 Z M 0.3125 0 "/></g></g></g><g fill="#ffffff" fill-opacity="1"><g transform="translate(18.33026, 4.277642)"><g><path d="M 1.25 0.03125 C 1.101562 0.03125 0.960938 0.0195312 0.828125 0 C 0.703125 -0.0195312 0.582031 -0.0507812 0.46875 -0.09375 C 0.363281 -0.132812 0.269531 -0.1875 0.1875 -0.25 L 0.34375 -0.640625 C 0.425781 -0.578125 0.515625 -0.523438 0.609375 -0.484375 C 0.703125 -0.453125 0.800781 -0.425781 0.90625 -0.40625 C 1.019531 -0.382812 1.132812 -0.375 1.25 -0.375 C 1.4375 -0.375 1.570312 -0.40625 1.65625 -0.46875 C 1.75 -0.539062 1.796875 -0.628906 1.796875 -0.734375 C 1.796875 -0.796875 1.78125 -0.84375 1.75 -0.875 C 1.726562 -0.914062 1.6875 -0.945312 1.625 -0.96875 C 1.5625 -1 1.476562 -1.023438 1.375 -1.046875 L 0.953125 -1.140625 C 0.710938 -1.179688 0.535156 -1.265625 0.421875 -1.390625 C 0.304688 -1.515625 0.25 -1.671875 0.25 -1.859375 C 0.25 -2.023438 0.289062 -2.164062 0.375 -2.28125 C 0.46875 -2.40625 0.59375 -2.5 0.75 -2.5625 C 0.90625 -2.632812 1.085938 -2.671875 1.296875 -2.671875 C 1.421875 -2.671875 1.535156 -2.660156 1.640625 -2.640625 C 1.753906 -2.617188 1.859375 -2.582031 1.953125 -2.53125 C 2.054688 -2.488281 2.140625 -2.4375 2.203125 -2.375 L 2.046875 -2 C 1.941406 -2.082031 1.828125 -2.144531 1.703125 -2.1875 C 1.578125 -2.226562 1.441406 -2.25 1.296875 -2.25 C 1.179688 -2.25 1.082031 -2.234375 1 -2.203125 C 0.914062 -2.171875 0.847656 -2.128906 0.796875 -2.078125 C 0.753906 -2.023438 0.734375 -1.957031 0.734375 -1.875 C 0.734375 -1.789062 0.757812 -1.722656 0.8125 -1.671875 C 0.875 -1.617188 0.976562 -1.578125 1.125 -1.546875 L 1.546875 -1.46875 C 1.796875 -1.414062 1.984375 -1.332031 2.109375 -1.21875 C 2.234375 -1.101562 2.296875 -0.953125 2.296875 -0.765625 C 2.296875 -0.609375 2.25 -0.46875 2.15625 -0.34375 C 2.070312 -0.226562 1.953125 -0.132812 1.796875 -0.0625 C 1.640625 0 1.457031 0.03125 1.25 0.03125 Z M 1.25 0.03125 "/></g></g></g><g fill="#ffffff" fill-opacity="1"><g transform="translate(21.148649, 4.277642)"><g><path d="M 0.3125 0 L 0.3125 -2.625 L 0.8125 -2.625 L 0.8125 0 Z M 0.3125 0 "/></g></g></g><g fill="#ffffff" fill-opacity="1"><g transform="translate(22.647621, 4.277642)"><g><path d="M 1.578125 0.03125 C 1.285156 0.03125 1.039062 -0.0195312 0.84375 -0.125 C 0.644531 -0.238281 0.492188 -0.394531 0.390625 -0.59375 C 0.285156 -0.789062 0.234375 -1.03125 0.234375 -1.3125 C 0.234375 -1.59375 0.285156 -1.832031 0.390625 -2.03125 C 0.492188 -2.238281 0.644531 -2.394531 0.84375 -2.5 C 1.050781 -2.613281 1.289062 -2.671875 1.5625 -2.671875 C 1.695312 -2.671875 1.820312 -2.65625 1.9375 -2.625 C 2.050781 -2.601562 2.15625 -2.570312 2.25 -2.53125 C 2.351562 -2.488281 2.441406 -2.4375 2.515625 -2.375 L 2.34375 -1.984375 C 2.226562 -2.078125 2.109375 -2.140625 1.984375 -2.171875 C 1.859375 -2.210938 1.722656 -2.234375 1.578125 -2.234375 C 1.304688 -2.234375 1.097656 -2.15625 0.953125 -2 C 0.804688 -1.84375 0.734375 -1.613281 0.734375 -1.3125 C 0.734375 -1 0.804688 -0.765625 0.953125 -0.609375 C 1.097656 -0.460938 1.316406 -0.390625 1.609375 -0.390625 C 1.722656 -0.390625 1.828125 -0.394531 1.921875 -0.40625 C 2.023438 -0.425781 2.125 -0.457031 2.21875 -0.5 L 2.125 -0.265625 L 2.125 -1.0625 L 1.515625 -1.0625 L 1.515625 -1.453125 L 2.53125 -1.453125 L 2.53125 -0.15625 C 2.457031 -0.113281 2.363281 -0.078125 2.25 -0.046875 C 2.144531 -0.0234375 2.035156 -0.0078125 1.921875 0 C 1.804688 0.0195312 1.691406 0.03125 1.578125 0.03125 Z M 1.578125 0.03125 "/></g></g></g><g fill="#ffffff" fill-opacity="1"><g transform="translate(25.850994, 4.277642)"><g><path d="M 0.3125 0 L 0.3125 -2.625 L 0.703125 -2.625 L 2.1875 -0.703125 L 2.125 -0.703125 L 2.125 -2.625 L 2.59375 -2.625 L 2.59375 0 L 2.1875 0 L 0.734375 -1.921875 L 0.78125 -1.921875 L 0.78125 0 Z M 0.3125 0 "/></g></g></g></g></g></svg>