<svg xmlns="http://www.w3.org/2000/svg" xmlns:xlink="http://www.w3.org/1999/xlink" width="40" zoomAndPan="magnify" viewBox="0 0 30 30.000001" height="40" preserveAspectRatio="xMidYMid meet" version="1.0"><defs><clipPath id="6ae7d56c0a"><path d="M 0.484375 0 L 29.515625 0 L 29.515625 28.917969 L 0.484375 28.917969 Z M 0.484375 0 " clip-rule="nonzero"/></clipPath><clipPath id="ad39961b83"><path d="M 15 0 L 16.117188 11.136719 L 23.988281 2.746094 L 17.960938 12.40625 L 29.515625 9.976562 L 18.628906 14.410156 L 29.515625 18.898438 L 17.960938 16.46875 L 23.988281 26.128906 L 16.117188 17.683594 L 15 28.875 L 13.882812 17.683594 L 6.011719 26.128906 L 12.039062 16.46875 L 0.484375 18.898438 L 11.371094 14.410156 L 0.484375 9.976562 L 12.039062 12.40625 L 6.011719 2.746094 L 13.882812 11.136719 Z M 15 0 " clip-rule="nonzero"/></clipPath><clipPath id="74fcaff74e"><path d="M 0.484375 0 L 29.515625 0 L 29.515625 28.917969 L 0.484375 28.917969 Z M 0.484375 0 " clip-rule="nonzero"/></clipPath><clipPath id="2ff2e2900b"><path d="M 15 0 L 16.117188 11.136719 L 23.988281 2.746094 L 17.960938 12.40625 L 29.515625 9.976562 L 18.628906 14.410156 L 29.515625 18.898438 L 17.960938 16.46875 L 23.988281 26.128906 L 16.117188 17.683594 L 15 28.875 L 13.882812 17.683594 L 6.011719 26.128906 L 12.039062 16.46875 L 0.484375 18.898438 L 11.371094 14.410156 L 0.484375 9.976562 L 12.039062 12.40625 L 6.011719 2.746094 L 13.882812 11.136719 Z M 15 0 " clip-rule="nonzero"/></clipPath><clipPath id="9dee4e3533"><rect x="0" width="30" y="0" height="29"/></clipPath></defs><g clip-path="url(#6ae7d56c0a)"><g clip-path="url(#ad39961b83)"><g transform="matrix(1, 0, 0, 1, 0, 0.000000000000005692)"><g clip-path="url(#9dee4e3533)"><g clip-path="url(#74fcaff74e)"><g clip-path="url(#2ff2e2900b)"><path fill="#0b6cb3" d="M 0.484375 0 L 29.515625 0 L 29.515625 29.03125 L 0.484375 29.03125 Z M 0.484375 0 " fill-opacity="1" fill-rule="nonzero"/></g></g></g></g></g></g></svg>